<?xml version="1.0" standalone="no"?>
<!DOCTYPE svg PUBLIC "-//W3C//DTD SVG 20010904//EN"
 "http://www.w3.org/TR/2001/REC-SVG-20010904/DTD/svg10.dtd">
<svg version="1.0" xmlns="http://www.w3.org/2000/svg"
 width="1154.000000pt" height="720.000000pt" viewBox="0 0 1154.000000 720.000000"
 preserveAspectRatio="xMidYMid meet">

<g transform="translate(0.000000,720.000000) scale(0.100000,-0.100000)"
fill="#000000" stroke="none">
<path d="M8813 6319 c-48 -44 -88 -88 -88 -96 0 -10 24 -26 65 -42 36 -15 81
-35 100 -45 28 -14 41 -15 63 -7 38 15 31 29 -32 70 -60 39 -59 41 46 65 106
24 322 22 421 -4 171 -43 369 -131 488 -216 34 -24 108 -92 164 -152 95 -101
104 -108 126 -98 13 6 24 19 24 29 0 10 -57 75 -127 145 -109 108 -143 135
-227 181 -164 90 -353 159 -496 181 -91 13 -323 -5 -417 -33 -46 -13 -83 -22
-83 -20 0 2 23 27 52 55 40 39 48 52 37 59 -8 5 -17 9 -21 9 -3 0 -46 -36 -95
-81z"/>
<path d="M5850 6317 c0 -11 129 -216 159 -253 5 -6 30 -15 55 -18 56 -9 70
-26 22 -26 -47 0 -46 -14 3 -33 40 -16 91 -69 72 -75 -6 -2 -26 9 -46 24 -47
36 -55 24 -17 -24 36 -44 57 -92 42 -92 -6 0 -26 23 -46 50 -20 28 -40 50 -45
50 -13 0 -12 -6 11 -50 23 -44 26 -84 8 -78 -13 4 -49 67 -63 110 -6 19 -9 15
-14 -24 -11 -80 -28 -80 -38 0 -6 50 -9 54 -138 182 -73 71 -138 130 -144 130
-27 0 -2 -32 119 -152 114 -114 130 -134 130 -162 0 -40 18 -96 32 -96 22 0
48 22 48 40 0 11 5 20 10 20 6 0 10 -6 10 -14 0 -8 11 -27 24 -43 20 -24 26
-25 40 -14 9 7 16 22 16 32 0 20 15 25 25 9 9 -15 32 -12 39 6 3 8 -1 28 -9
44 -17 33 -19 44 -6 36 12 -8 41 4 41 16 0 5 -12 25 -26 44 -14 18 -24 40 -21
48 10 25 -17 47 -73 59 l-55 12 -25 66 c-38 98 -91 182 -117 186 -14 2 -23 -2
-23 -10z"/>
<path d="M4090 6290 c-246 -20 -358 -34 -386 -47 -17 -7 -67 -58 -111 -111
-45 -53 -91 -106 -103 -117 -13 -11 -46 -49 -75 -85 -33 -42 -65 -70 -88 -79
-21 -8 -37 -18 -37 -22 0 -14 110 -21 229 -15 l119 6 67 -207 c38 -115 71
-212 75 -216 13 -15 232 -10 309 7 79 17 252 71 288 89 12 7 53 37 91 67 70
55 91 90 66 110 -7 6 -24 64 -38 128 -14 64 -37 152 -52 195 -14 43 -24 79
-22 81 22 14 129 96 151 115 24 22 29 23 42 10 18 -18 22 -68 8 -94 -7 -13 -9
-45 -3 -92 6 -56 13 -78 36 -107 l29 -36 6 32 5 33 12 -35 c11 -32 11 -29 8
34 -2 42 0 63 5 55 5 -8 9 -22 9 -31 0 -11 8 -18 20 -18 11 0 20 -7 20 -16 0
-8 4 -13 9 -10 21 13 -35 143 -79 184 -10 9 -25 46 -33 82 -15 62 -15 66 4 83
10 10 19 21 19 25 0 9 -491 11 -600 2z m373 -17 c-13 -2 -33 -2 -45 0 -13 2
-3 4 22 4 25 0 35 -2 23 -4z m-54 -20 c145 -6 151 -7 135 -24 -9 -10 -26 -21
-38 -25 -11 -4 -33 -19 -48 -34 -14 -16 -36 -31 -48 -35 -12 -4 -51 -27 -88
-52 -53 -36 -62 -40 -42 -18 14 16 18 25 10 20 -27 -14 -50 -37 -45 -45 3 -4
-3 -14 -13 -21 -15 -13 -16 -12 -3 4 23 29 -1 19 -36 -15 -61 -59 -33 -14 37
61 109 115 82 106 -36 -13 -97 -97 -125 -119 -123 -98 0 4 29 32 64 62 68 60
78 79 18 35 -27 -19 -19 -9 25 35 34 34 62 64 62 66 0 2 -11 4 -25 4 -16 0
-43 -16 -72 -42 -26 -24 -40 -32 -31 -20 9 13 26 30 37 38 22 16 28 34 11 34
-17 0 -80 -62 -73 -73 3 -6 1 -7 -6 -3 -6 4 -23 -2 -38 -13 -37 -30 -40 -19
-7 26 26 36 25 35 -23 -11 -56 -53 -69 -38 -15 17 18 18 32 39 32 46 0 20 -50
-21 -95 -77 -36 -46 -65 -71 -65 -56 0 3 22 29 49 57 26 29 48 59 48 67 1 8 4
24 8 35 7 18 5 17 -21 -5 -16 -14 -32 -29 -35 -34 -12 -16 -29 5 -24 31 l4 26
-21 -22 c-18 -21 -22 -21 -36 -7 -23 23 -1 41 66 55 165 33 233 36 501 24z
m-584 -43 c-3 -5 -12 -10 -18 -10 -7 0 -6 4 3 10 19 12 23 12 15 0z m-93 -50
c-23 -22 -42 -36 -42 -32 0 4 -11 -6 -25 -21 -14 -15 -29 -27 -33 -27 -4 1 16
21 43 45 28 24 59 52 70 62 11 11 22 17 25 15 2 -2 -15 -21 -38 -42z m68 20
c0 -5 -4 -10 -10 -10 -5 0 -10 5 -10 10 0 6 5 10 10 10 6 0 10 -4 10 -10z
m394 -52 c-24 -29 -44 -46 -69 -59 -11 -6 1 10 27 35 49 48 75 63 42 24z m242
-156 c-6 -6 -26 43 -25 61 0 7 7 -3 15 -22 8 -18 13 -36 10 -39z m-48 36 c6
-13 22 -61 37 -108 14 -47 37 -119 50 -161 14 -42 25 -84 25 -92 0 -18 -35
-41 -49 -33 -5 3 -20 -3 -32 -14 -19 -16 -20 -19 -5 -13 35 12 8 -15 -47 -45
-71 -41 -185 -78 -282 -91 -44 -7 -95 -14 -114 -18 -24 -4 -32 -2 -27 6 4 6
23 11 42 11 19 0 34 5 34 10 0 6 33 11 78 11 l77 2 -60 7 c-33 4 -89 3 -124
-2 -49 -6 -67 -5 -73 4 -13 21 -9 28 15 29 13 0 16 2 7 6 -8 2 -22 7 -30 10
-9 3 0 10 25 19 l40 13 -40 -5 c-29 -3 -36 -2 -25 5 8 6 26 11 39 11 23 0 23
1 8 13 -16 11 -15 13 12 23 37 15 67 0 31 -15 -24 -9 -24 -10 -2 -10 17 -1 22
-7 22 -25 0 -29 11 -38 30 -25 9 5 10 9 4 9 -12 0 -29 63 -25 89 2 10 -3 11
-16 6 -10 -4 -25 -8 -33 -9 -8 -1 -36 -6 -62 -10 -57 -10 -86 -2 -69 18 6 7 9
21 5 29 -4 12 11 23 60 46 36 17 72 31 80 31 8 0 17 8 20 18 4 11 28 24 67 35
34 10 59 21 56 24 -4 3 -19 1 -34 -6 -15 -6 -55 -15 -88 -20 -53 -7 -57 -9
-36 -18 32 -13 15 -24 -46 -29 -33 -3 -44 -1 -41 8 3 7 17 14 31 16 15 2 27
10 27 18 0 9 10 14 28 14 15 0 38 3 52 7 l25 7 -24 6 c-21 5 -20 7 19 28 23
12 48 22 55 22 7 0 38 13 69 30 31 16 54 25 51 20 -4 -6 -24 -19 -45 -30 -44
-22 -61 -41 -33 -37 39 6 138 79 138 102 0 6 9 8 20 7 16 -3 17 -2 6 12 -8 9
-12 18 -10 19 2 1 12 9 22 16 14 11 20 11 34 0 15 -12 16 -12 10 4 -9 25 8 21
21 -5z m-403 -32 c-10 -14 -21 -26 -26 -26 -5 0 0 13 12 30 27 36 38 33 14 -4z
m35 -21 c-7 -9 -15 -13 -17 -11 -7 7 7 26 19 26 6 0 6 -6 -2 -15z m-38 -127
c-4 -3 -25 -7 -47 -8 -64 -3 -91 0 -78 8 14 9 135 9 125 0z m-102 -78 c-6 -12
-21 -20 -35 -20 -24 0 -24 1 -7 19 9 11 25 20 35 20 15 1 16 -2 7 -19z"/>
<path d="M4239 6183 c-13 -15 -12 -15 9 -4 23 12 28 21 13 21 -5 0 -15 -7 -22
-17z"/>
<path d="M4330 5995 c0 -8 2 -15 4 -15 2 0 6 7 10 15 3 8 1 15 -4 15 -6 0 -10
-7 -10 -15z"/>
<path d="M4000 5695 c0 -8 7 -15 16 -15 14 0 14 3 4 15 -7 8 -14 15 -16 15 -2
0 -4 -7 -4 -15z"/>
<path d="M4346 5566 c-16 -7 -25 -15 -20 -18 5 -3 23 3 39 13 34 21 24 24 -19
5z"/>
<path d="M6396 6258 c-15 -36 -42 -127 -51 -170 -3 -15 -13 -29 -23 -32 -51
-17 -108 -106 -66 -106 15 0 15 -22 -2 -83 -3 -10 1 -20 10 -23 11 -4 16 -19
16 -44 0 -54 13 -57 48 -9 l31 41 3 -33 c4 -43 29 -45 42 -4 6 17 11 31 12 33
1 2 12 -3 24 -10 18 -11 23 -11 36 6 18 25 18 57 -1 103 -15 35 -14 41 6 93
12 30 35 81 51 112 33 68 34 72 9 58 -11 -5 -27 -31 -37 -57 -9 -27 -28 -76
-41 -109 -21 -55 -22 -67 -12 -114 8 -36 8 -55 1 -62 -8 -8 -13 -2 -17 18 -4
16 -8 34 -9 39 -2 6 -13 -19 -24 -55 l-22 -65 6 73 c3 39 3 72 0 72 -3 0 -22
-34 -41 -75 -20 -41 -41 -75 -46 -75 -16 0 -1 59 28 108 32 57 24 79 -10 25
-14 -23 -31 -44 -37 -48 -21 -13 -9 33 19 76 33 49 32 58 -4 39 -14 -7 -28
-10 -31 -7 -10 10 16 37 57 58 21 10 41 24 44 29 5 9 65 217 65 228 0 1 -5 2
-11 2 -5 0 -16 -15 -23 -32z"/>
<path d="M8084 6227 c-23 -23 -55 -61 -74 -85 -31 -42 -32 -45 -21 -84 7 -22
11 -41 9 -41 -2 -1 -27 -24 -56 -52 -48 -45 -53 -48 -58 -29 -13 50 -156 78
-276 54 -75 -14 -195 -60 -244 -94 -23 -16 -46 -45 -66 -87 -30 -63 -30 -66
-24 -182 3 -65 10 -126 16 -137 12 -22 13 -30 3 -29 -21 3 -22 -4 -4 -38 18
-36 39 -59 85 -93 18 -14 19 -13 13 2 -4 13 6 10 45 -13 90 -53 253 -55 380
-4 53 21 76 38 117 85 67 76 83 122 82 233 0 81 -4 96 -36 164 -40 83 -40 83
26 128 l40 28 55 -23 56 -23 79 80 c43 44 79 88 79 97 0 21 -39 36 -95 36 -48
0 -49 1 -61 82 -9 70 -23 75 -70 25z m155 -174 c-13 -15 -41 -44 -62 -64 l-39
-38 -34 17 c-38 19 -41 27 -19 49 15 14 29 14 82 -3 17 -5 17 -5 -1 10 -19 15
-19 16 -1 36 12 14 31 20 58 20 l40 0 -24 -27z m-517 -128 c35 -4 68 -15 88
-30 l32 -23 -26 -18 c-23 -15 -29 -15 -44 -2 -32 27 -73 38 -141 38 -74 0
-139 -26 -193 -77 -58 -55 -70 -191 -25 -279 49 -95 100 -133 196 -141 104
-10 202 39 248 122 24 43 28 61 27 130 -1 51 -7 94 -17 119 -16 36 -16 39 0
52 26 19 35 13 59 -37 31 -63 41 -183 19 -235 -36 -87 -74 -132 -137 -164 -34
-16 -69 -30 -78 -30 -9 0 -21 -5 -28 -12 -13 -13 -166 5 -216 26 -51 22 -113
97 -132 161 -16 58 -20 147 -8 214 23 129 182 208 376 186z m13 -106 c14 -14
14 -18 -4 -41 -18 -22 -26 -25 -70 -20 -40 3 -56 0 -80 -17 -57 -41 -64 -126
-15 -172 21 -19 36 -24 81 -24 50 0 57 3 85 34 28 31 30 38 24 84 -6 39 -3 53
10 68 9 11 20 19 24 19 16 0 45 -88 45 -135 -1 -72 -28 -114 -94 -147 -105
-54 -215 -30 -266 56 -37 63 -44 96 -33 152 5 27 10 57 11 66 2 21 58 68 100
84 45 17 163 13 182 -7z m-84 -116 c-12 -20 -14 -14 -5 12 4 9 9 14 11 11 3
-2 0 -13 -6 -23z m-316 -293 c9 -16 13 -30 11 -30 -3 0 -14 14 -26 30 -12 17
-17 30 -11 30 6 0 17 -13 26 -30z"/>
<path d="M2616 6210 c-3 -8 -17 -46 -31 -85 -35 -93 -35 -100 -6 -100 21 0 28
9 48 65 27 76 28 89 9 116 -12 16 -15 16 -20 4z"/>
<path d="M634 6083 l-31 -15 -6 -257 c-4 -141 -9 -299 -12 -352 -4 -90 -3 -97
15 -102 11 -3 20 -14 20 -24 0 -27 11 -35 27 -21 9 7 60 12 131 14 64 1 140 5
167 8 28 4 95 8 150 9 l100 3 7 109 c4 61 11 216 16 345 8 227 8 236 -12 258
-11 12 -27 22 -37 22 -10 0 -21 5 -24 10 -4 6 -95 10 -243 9 -193 0 -243 -3
-268 -16z m21 -43 c-3 -5 -13 -6 -21 -3 -12 4 -13 8 -3 14 15 9 32 2 24 -11z
m360 -30 c49 -6 94 -15 100 -21 5 -5 8 -51 8 -103 -2 -97 -22 -428 -26 -432
-1 -1 -101 -5 -221 -9 l-219 -8 7 24 c4 13 12 112 17 219 13 251 36 333 96
343 33 6 114 1 238 -13z m112 -577 c-3 -10 -5 -4 -5 12 0 17 2 24 5 18 2 -7 2
-21 0 -30z m-212 -27 c16 -12 17 -16 6 -30 -17 -20 -55 -21 -71 -1 -10 12 -10
18 0 30 16 19 40 19 65 1z m255 -23 c0 -8 -13 -13 -30 -13 -19 0 -30 5 -30 14
0 8 11 13 30 12 17 -1 30 -7 30 -13z"/>
<path d="M1027 5863 c-16 -15 -6 -52 14 -58 17 -6 19 -9 8 -16 -10 -6 -6 -9
14 -9 22 0 28 4 25 17 -2 10 -12 19 -23 21 -33 6 -41 21 -19 37 15 12 16 14 3
15 -9 0 -19 -3 -22 -7z"/>
<path d="M900 5846 c0 -2 9 -25 20 -50 18 -43 40 -61 40 -34 0 9 3 9 12 0 28
-28 38 4 17 52 -12 26 -32 27 -22 1 3 -10 -1 -15 -15 -15 -13 0 -22 9 -26 25
-4 14 -11 25 -16 25 -6 0 -10 -2 -10 -4z"/>
<path d="M820 5798 c0 -24 4 -49 9 -57 10 -15 41 -8 41 8 0 6 -7 8 -15 5 -9
-4 -15 0 -15 9 0 9 10 18 23 20 l22 4 -22 8 c-29 9 -30 25 -2 25 11 0 17 5 14
10 -3 6 -17 10 -31 10 -22 0 -24 -4 -24 -42z"/>
<path d="M785 5795 l7 -40 -30 28 c-35 33 -41 28 -34 -30 5 -48 22 -59 22 -15
l1 27 22 -27 c13 -16 27 -28 31 -28 12 0 -1 101 -15 114 -9 8 -10 1 -4 -29z"/>
<path d="M946 5651 c-18 -7 -18 -8 -2 -14 19 -8 36 -1 36 14 0 10 -7 11 -34 0z"/>
<path d="M865 5625 c-25 -12 -26 -14 -5 -9 28 7 60 23 45 23 -5 0 -23 -6 -40
-14z"/>
<path d="M896 5596 c-21 -18 -35 -36 -30 -38 5 -3 36 7 69 23 33 15 69 31 80
34 11 4 15 8 8 11 -6 3 -28 -2 -48 -10 -46 -20 -51 -20 -35 -1 22 26 -4 15
-44 -19z"/>
<path d="M1960 6066 c0 -24 110 -240 126 -249 37 -21 31 14 -20 117 -30 59
-56 117 -59 127 -6 22 -47 26 -47 5z"/>
<path d="M9335 5920 c-8 -14 1 -155 15 -231 14 -74 24 -82 80 -65 62 18 67 41
7 34 -56 -7 -55 -9 -69 142 -11 113 -19 143 -33 120z"/>
<path d="M2871 5827 c-90 -59 -119 -87 -89 -87 11 0 100 55 186 115 24 17 29
35 10 35 -7 0 -55 -28 -107 -63z"/>
<path d="M8777 5853 c-15 -25 -25 -92 -20 -130 4 -31 16 -55 38 -79 41 -43 76
-45 104 -5 25 35 25 35 6 55 -24 24 -47 9 -40 -25 9 -40 -15 -38 -50 2 -23 28
-26 39 -23 93 l3 61 63 3 c44 2 62 7 59 15 -4 14 -132 23 -140 10z"/>
<path d="M2232 5839 c-29 -5 -92 -25 -139 -44 -222 -92 -343 -227 -351 -394
-9 -158 47 -246 193 -301 38 -14 30 6 -9 25 -42 20 -80 62 -107 118 -11 23
-24 48 -27 56 -14 26 5 175 27 222 42 88 138 174 256 228 111 51 180 65 310
66 138 0 173 -12 251 -90 69 -69 87 -132 88 -309 1 -72 4 -91 18 -100 9 -5 20
-7 24 -3 4 4 6 60 5 124 -2 93 -7 131 -25 184 -35 100 -114 177 -220 212 -54
19 -201 21 -294 6z"/>
<path d="M1624 5775 c-13 -32 51 -75 111 -75 49 0 44 18 -10 31 -25 6 -50 19
-55 29 -13 25 -40 33 -46 15z"/>
<path d="M9029 5776 c-48 -24 -59 -88 -22 -128 37 -41 93 -6 93 57 0 70 -25
94 -71 71z m29 -68 c-4 -49 -23 -60 -39 -24 -10 22 -9 29 6 46 27 30 36 24 33
-22z"/>
<path d="M9200 5770 c-44 -11 -60 -34 -60 -86 0 -78 61 -85 97 -11 l21 42 10
-25 c12 -31 38 -55 46 -42 3 5 -4 29 -15 53 -38 84 -38 83 -99 69z m20 -40 c0
-21 -29 -80 -39 -80 -14 0 -14 46 -1 71 11 20 40 26 40 9z"/>
<path d="M6163 5730 c-26 -29 -27 -29 -40 -10 -18 25 -49 26 -63 1 -5 -11 -10
-48 -10 -83 0 -62 -1 -64 -63 -140 -59 -73 -95 -138 -76 -138 4 0 15 13 23 28
8 15 40 61 72 102 58 76 73 114 74 193 0 27 4 37 16 37 14 0 16 -7 11 -45 -8
-58 12 -61 36 -6 9 21 26 46 37 56 19 18 20 17 20 -2 0 -11 -11 -37 -25 -57
-28 -41 -29 -46 -15 -46 6 0 25 20 42 45 18 25 35 45 39 45 14 0 -9 -59 -37
-95 -37 -49 -21 -58 19 -10 62 75 66 80 67 69 0 -6 -18 -38 -40 -70 -21 -32
-37 -60 -34 -63 3 -3 23 15 45 39 28 30 43 40 50 33 16 -16 -14 -66 -57 -99
-26 -20 -50 -57 -89 -138 -29 -61 -56 -124 -59 -140 -6 -26 -5 -28 8 -17 9 8
16 17 16 21 0 4 25 60 56 125 42 86 66 124 95 147 21 17 44 47 50 66 11 33 10
37 -9 50 -16 11 -20 20 -15 43 5 24 2 29 -15 29 -12 0 -22 8 -25 21 -4 14 -11
20 -21 16 -8 -3 -17 1 -20 9 -9 23 -34 16 -63 -16z"/>
<path d="M8521 5741 c-7 -5 -11 -19 -9 -32 2 -18 10 -25 31 -27 23 -3 27 0 27
22 0 28 -29 49 -49 37z"/>
<path d="M6405 5720 c5 -16 2 -20 -19 -20 -31 0 -34 -20 -6 -45 l21 -19 -26
-13 c-14 -8 -25 -18 -25 -23 0 -14 57 -48 93 -56 27 -6 28 -7 11 -25 -9 -10
-14 -25 -11 -32 7 -17 70 -27 93 -14 13 7 34 -8 98 -70 73 -72 123 -109 114
-84 -4 13 -201 191 -210 191 -5 0 -8 -4 -8 -9 0 -13 -51 -24 -63 -12 -10 10
24 33 44 29 6 -2 13 2 16 8 2 6 -30 23 -72 39 -41 15 -75 31 -75 36 0 14 21
10 67 -11 61 -27 59 -12 -3 35 -63 47 -80 74 -31 49 17 -9 44 -25 60 -36 41
-29 35 1 -8 36 -19 16 -35 33 -35 38 0 17 22 6 64 -32 51 -47 70 -52 56 -14
-14 35 -13 44 4 44 8 0 20 -16 27 -35 8 -22 29 -45 58 -65 25 -17 78 -53 116
-80 48 -33 73 -45 80 -38 7 7 7 12 0 14 -17 7 -178 113 -198 132 -11 9 -27 33
-36 52 -20 43 -69 56 -78 21 -5 -20 -6 -20 -38 4 -17 14 -44 25 -59 25 -23 0
-26 -3 -21 -20z"/>
<path d="M4680 5720 c0 -6 6 -21 14 -33 8 -12 18 -44 21 -72 6 -45 4 -54 -24
-93 -39 -53 -85 -82 -131 -82 -42 0 -55 -8 -65 -38 -8 -28 18 -62 49 -62 12 0
35 13 51 29 17 17 51 49 77 72 78 68 91 97 83 178 -5 48 -13 76 -26 90 -21 22
-49 28 -49 11z"/>
<path d="M8305 5711 c-38 -11 -82 -22 -97 -25 -16 -4 -28 -13 -28 -21 0 -18
-9 -19 97 5 105 24 136 37 128 50 -8 13 -17 12 -100 -9z"/>
<path d="M5660 5650 c-42 -28 -45 -29 -48 -10 -2 11 -7 20 -11 20 -11 0 -42
-81 -44 -117 -2 -27 0 -28 38 -26 57 3 85 12 85 25 0 7 -14 9 -40 5 -58 -8
-52 14 20 70 55 42 72 63 53 63 -5 0 -28 -14 -53 -30z"/>
<path d="M10610 5657 c-41 -11 -77 -22 -79 -24 -2 -2 1 -14 8 -27 16 -30 7
-62 -24 -82 -18 -12 -29 -13 -43 -5 -16 9 -19 18 -15 56 4 34 2 45 -8 45 -18
0 -185 -47 -200 -55 -12 -8 -8 -45 14 -123 l16 -54 -26 7 c-20 5 -31 -1 -59
-30 -62 -66 -35 -153 45 -142 20 3 43 8 52 12 14 5 20 -7 34 -64 23 -94 35
-104 111 -91 32 6 69 13 82 15 19 5 22 1 22 -25 0 -61 98 -86 148 -37 29 29
32 70 7 97 -19 21 -18 23 40 35 17 3 54 15 82 26 44 18 52 25 48 43 -30 147
-30 146 -4 146 28 0 79 53 79 83 0 55 -78 99 -130 72 l-27 -14 -23 79 c-26 93
-25 92 -150 57z m136 -92 c26 -85 40 -99 64 -69 8 9 25 14 44 12 25 -2 32 -9
40 -35 12 -45 -5 -63 -60 -63 -24 0 -44 -3 -44 -7 0 -5 12 -40 26 -80 15 -40
24 -78 21 -85 -2 -8 -31 -22 -63 -32 -33 -10 -74 -24 -93 -32 -33 -14 -33 -14
-17 -39 33 -51 11 -105 -44 -105 -50 0 -72 38 -49 82 11 20 10 20 -47 12 -33
-4 -79 -8 -104 -9 l-45 0 -19 60 c-36 113 -32 108 -65 90 -17 -8 -44 -15 -60
-15 -24 0 -32 5 -37 25 -3 14 -3 36 0 50 6 22 11 25 56 25 48 0 50 1 50 28 0
15 -6 47 -14 72 -28 94 -28 100 -7 100 11 0 50 11 86 24 l67 24 -7 -25 c-9
-38 2 -59 41 -78 50 -24 88 -13 109 32 10 20 15 47 12 62 -5 26 -3 28 51 43
31 9 62 17 69 17 7 1 24 -36 39 -84z"/>
<path d="M7195 5565 c8 -72 35 -143 65 -175 17 -18 34 -30 37 -26 4 3 -3 13
-15 22 -30 21 -42 46 -69 139 -14 49 -21 64 -18 40z"/>
<path d="M2326 5465 c-12 -13 -15 -31 -11 -83 3 -58 1 -70 -17 -89 -25 -26
-48 -30 -48 -8 0 46 -92 125 -145 125 -18 0 -38 -7 -45 -15 -21 -25 -25 -111
-7 -138 18 -27 76 -47 138 -47 l45 0 12 -47 c25 -92 31 -118 37 -166 8 -52 20
-66 40 -46 12 12 12 26 0 89 -16 87 -34 149 -48 168 -11 14 -10 16 43 53 29
20 47 24 99 24 l64 0 2 -100 c2 -119 9 -145 37 -145 19 0 20 4 13 53 -4 28 -6
77 -5 107 8 205 6 245 -14 248 -23 5 -36 -14 -36 -54 0 -57 -56 -104 -87 -73
-9 9 -8 19 3 41 9 16 14 47 12 71 -3 39 -5 42 -34 45 -19 2 -38 -3 -48 -13z
m-169 -117 c35 -37 65 -92 56 -102 -13 -13 -69 -5 -101 14 -30 19 -32 23 -27
58 13 75 24 80 72 30z"/>
<path d="M5393 5469 c18 -11 18 -22 1 -81 -3 -10 -1 -18 4 -18 6 0 13 19 17
41 5 29 13 43 27 47 28 7 3 22 -37 22 -26 -1 -28 -2 -12 -11z"/>
<path d="M1390 5432 c0 -17 7 -43 15 -59 9 -15 20 -40 25 -55 15 -44 34 -35
26 12 -3 22 -2 40 3 40 14 0 207 -206 258 -275 52 -69 73 -86 73 -57 0 52
-151 234 -269 324 -32 24 -33 26 -12 33 11 3 21 10 21 15 0 14 -53 39 -99 46
-40 6 -41 6 -41 -24z"/>
<path d="M5475 5443 c-9 -8 -15 -27 -13 -42 2 -20 9 -27 29 -29 30 -4 42 16
33 53 -8 30 -29 38 -49 18z m35 -32 c0 -23 -9 -31 -26 -24 -17 6 -18 25 -2 41
14 14 28 6 28 -17z"/>
<path d="M3051 5431 c-19 -3 -36 -12 -39 -20 -4 -11 8 -13 61 -9 69 6 91 14
82 29 -7 10 -50 10 -104 0z"/>
<path d="M5552 5418 c-27 -27 -2 -95 31 -82 23 9 22 35 -3 41 -21 6 -27 28
-10 38 6 3 13 -1 16 -9 3 -9 10 -16 15 -16 6 0 5 9 -1 20 -12 23 -30 26 -48 8z
m35 -64 c-3 -3 -12 -4 -19 -1 -8 3 -5 6 6 6 11 1 17 -2 13 -5z"/>
<path d="M5635 5400 c-2 -4 -7 -25 -11 -47 -5 -33 -3 -41 11 -47 10 -3 21 -3
24 0 3 4 0 9 -6 11 -18 6 -16 33 2 33 8 0 15 5 15 10 0 6 -7 10 -15 10 -8 0
-15 5 -15 11 0 7 10 9 25 5 14 -4 25 -2 25 3 0 11 -49 21 -55 11z"/>
<path d="M5723 5383 c11 -3 16 -11 13 -21 -2 -9 -8 -28 -11 -41 -5 -15 -3 -21
3 -17 6 3 13 20 17 37 5 20 11 29 21 25 8 -3 14 -1 14 3 0 12 -26 21 -53 20
-18 -1 -19 -2 -4 -6z"/>
<path d="M3404 5365 c-8 -19 5 -38 22 -31 8 3 24 2 35 -3 19 -7 16 -11 -32
-35 -112 -59 -195 -132 -312 -275 -120 -148 -202 -386 -132 -386 17 0 21 9 27
60 11 98 61 195 175 337 51 65 170 173 203 186 8 3 25 13 38 23 26 20 132 62
139 55 2 -2 -8 -27 -23 -55 -21 -38 -25 -54 -17 -62 20 -20 41 -2 67 55 14 30
30 57 35 61 13 8 14 42 2 49 -14 9 -162 36 -194 36 -15 0 -30 -7 -33 -15z"/>
<path d="M5792 5320 c-15 -43 -15 -74 0 -42 15 31 38 28 39 -5 0 -25 1 -26 9
-8 5 11 8 34 8 50 0 17 -2 22 -5 13 -6 -25 -22 -22 -32 4 -7 20 -9 19 -19 -12z"/>
<path d="M5865 5276 c-8 -52 -2 -66 28 -66 20 1 20 2 5 11 -27 15 -21 30 10
24 l27 -6 -27 16 c-16 9 -28 23 -28 31 0 12 6 15 28 10 26 -6 26 -6 8 9 -32
25 -44 18 -51 -29z"/>
<path d="M8997 5285 c-26 -7 -59 -20 -72 -29 -24 -16 -25 -21 -25 -115 0 -54
5 -123 10 -152 14 -70 21 -123 25 -179 1 -25 7 -63 13 -85 5 -22 13 -80 17
-129 3 -50 10 -98 16 -107 24 -46 260 -38 376 13 23 10 59 40 82 67 33 39 42
59 47 104 12 99 -7 140 -93 207 l-33 25 22 45 c24 47 31 123 17 174 -12 45
-72 101 -143 135 -75 36 -185 47 -259 26z m223 -126 c58 -36 55 -140 -5 -213
-21 -25 -49 -49 -64 -52 -14 -4 -36 -12 -47 -20 -21 -12 -21 -11 -28 69 -4 45
-9 117 -12 159 l-4 78 65 -2 c43 -1 76 -8 95 -19z m140 -419 c0 -20 -60 -77
-95 -90 -24 -9 -152 -16 -159 -9 -4 4 -9 113 -7 148 1 10 10 6 30 -13 l29 -28
43 23 c24 12 60 25 79 29 29 5 39 2 58 -18 12 -14 22 -33 22 -42z"/>
<path d="M4673 5249 c-4 -21 -9 -27 -16 -20 -23 23 -29 10 -7 -14 31 -33 40
-32 40 5 0 37 21 40 44 5 17 -26 36 -33 36 -14 0 16 -57 69 -74 69 -10 0 -19
-12 -23 -31z"/>
<path d="M5961 5258 c-19 -52 -22 -68 -12 -68 6 0 11 5 11 12 0 6 9 3 20 -7
11 -10 20 -13 20 -7 0 6 -5 14 -11 17 -6 5 -4 12 8 20 14 11 16 18 7 31 -16
27 -33 28 -43 2z m29 -7 c0 -6 -4 -13 -10 -16 -5 -3 -10 1 -10 9 0 9 5 16 10
16 6 0 10 -4 10 -9z"/>
<path d="M4235 5261 c-3 -6 7 -16 22 -23 37 -18 41 -45 9 -59 -14 -7 -26 -16
-26 -21 0 -13 24 -9 49 8 22 16 24 16 48 -15 23 -29 43 -40 43 -23 0 4 -12 20
-26 35 -18 19 -23 34 -19 48 6 17 4 20 -12 15 -13 -4 -26 2 -41 19 -23 26 -37
31 -47 16z"/>
<path d="M4360 5245 c0 -8 4 -15 9 -15 5 0 17 -3 27 -7 23 -9 10 13 -17 27
-15 9 -19 7 -19 -5z"/>
<path d="M4498 5209 c-22 -12 -23 -52 -3 -69 22 -19 64 -4 71 25 11 44 -27 68
-68 44z m48 -44 c-3 -9 -14 -15 -23 -13 -24 4 -29 35 -6 40 24 6 37 -7 29 -27z"/>
<path d="M8380 5212 c-30 -9 -92 -86 -120 -148 -31 -69 -46 -149 -42 -234 3
-59 29 -167 43 -176 5 -3 9 -12 9 -20 0 -27 59 -102 104 -134 54 -37 158 -50
231 -30 76 21 135 106 160 228 7 37 18 82 23 99 8 23 7 55 -3 110 -37 218
-124 302 -319 308 -39 1 -78 0 -86 -3z m131 -166 c64 -27 115 -124 118 -222 1
-48 -3 -66 -19 -86 -11 -15 -20 -30 -20 -35 0 -5 -11 -20 -24 -32 -22 -20 -31
-22 -75 -16 -75 10 -104 56 -122 194 -12 98 -5 139 32 179 33 35 59 39 110 18z"/>
<path d="M7995 5200 c-27 -5 -80 -15 -117 -21 -56 -9 -71 -16 -88 -39 -26 -36
-25 -61 1 -94 19 -24 25 -26 70 -20 49 7 49 6 50 -22 0 -16 2 -36 4 -44 30
-130 32 -221 6 -304 -15 -50 -23 -61 -55 -77 -45 -22 -121 -28 -138 -11 -7 7
-31 12 -55 12 -34 0 -46 -5 -58 -24 -14 -21 -14 -28 -2 -58 8 -18 30 -50 48
-71 94 -105 318 -67 371 63 30 72 53 274 52 453 0 115 1 127 16 122 12 -4 26
6 44 29 29 38 34 77 12 95 -19 16 -101 22 -161 11z"/>
<path d="M4405 5170 c-3 -6 4 -19 17 -30 42 -35 54 -19 14 19 -16 15 -26 19
-31 11z"/>
<path d="M5455 5151 c-22 -6 -7 -9 55 -12 73 -4 97 -10 170 -44 98 -45 160
-83 160 -97 0 -6 -8 -7 -17 -3 -89 38 -162 56 -298 75 -174 24 -232 23 -388
-9 -51 -11 -127 -24 -169 -31 -142 -21 -305 -106 -429 -222 -52 -49 -154 -172
-206 -250 -13 -18 -23 -27 -23 -20 0 17 45 87 98 150 25 29 42 55 40 58 -11
10 -115 -133 -162 -221 -14 -27 -44 -75 -65 -105 -21 -30 -48 -82 -60 -115
-13 -33 -35 -80 -50 -105 -30 -48 -71 -136 -71 -151 0 -23 17 -4 38 41 23 50
49 80 39 44 -8 -27 -17 -131 -22 -254 -3 -92 0 -119 27 -225 16 -66 33 -133
36 -150 5 -28 4 -29 -13 -15 -9 8 4 -21 30 -63 38 -63 45 -80 35 -92 -9 -11
-9 -22 -1 -46 13 -39 -16 -136 -59 -189 -15 -20 -37 -56 -48 -80 -12 -25 -67
-97 -122 -160 -56 -63 -108 -128 -115 -145 -8 -16 -41 -59 -74 -94 -34 -36
-61 -69 -61 -75 0 -5 -3 -7 -6 -4 -8 9 20 51 114 166 46 57 82 106 79 108 -3
3 -71 -70 -154 -166 -17 -19 -65 -87 -107 -150 -43 -63 -95 -136 -117 -162
-21 -26 -39 -52 -39 -58 0 -21 -80 -129 -146 -197 -47 -49 -64 -73 -60 -88 21
-90 31 -113 54 -138 39 -41 160 -120 216 -141 45 -17 50 -18 61 -2 7 9 16 16
21 16 14 0 85 73 124 126 19 26 47 61 63 77 15 16 27 32 27 37 0 8 71 104 114
155 14 16 26 35 26 42 0 6 4 13 8 15 4 2 39 41 77 88 38 47 77 94 87 105 10
11 30 36 45 57 16 20 59 72 98 117 64 74 71 79 86 65 16 -14 19 -13 34 10 13
20 15 29 6 40 -9 11 7 29 83 90 84 68 99 76 137 76 28 0 52 -7 73 -23 61 -46
194 -95 353 -131 110 -25 460 -32 533 -11 30 9 93 27 140 39 98 27 172 51 215
70 149 68 164 77 219 137 31 35 59 74 63 88 3 14 11 33 18 41 22 27 46 80 40
90 -3 6 -2 10 4 10 9 0 63 88 124 202 15 29 32 57 37 62 6 6 10 20 10 32 0 12
16 64 35 114 60 158 72 367 30 530 -14 52 -25 114 -25 138 0 24 -7 57 -16 73
-8 17 -26 63 -39 103 -28 86 -76 184 -111 225 -13 16 -24 33 -24 39 0 24 -154
151 -233 192 -45 24 -109 64 -142 90 -125 98 -303 192 -395 210 -58 11 -71 11
-115 1z m-245 -171 c0 -5 -12 -10 -27 -9 -25 0 -26 1 -8 9 27 12 35 12 35 0z
m-343 -6 c-3 -3 -12 -4 -19 -1 -8 3 -5 6 6 6 11 1 17 -2 13 -5z m-62 -34 c-3
-5 -11 -10 -16 -10 -6 0 -7 5 -4 10 3 6 11 10 16 10 6 0 7 -4 4 -10z m730 -89
c39 -6 113 -20 165 -31 52 -12 106 -23 120 -26 57 -12 150 -46 150 -55 0 -19
-61 -8 -152 27 -135 52 -242 73 -410 80 -81 4 -145 10 -143 14 6 10 185 4 270
-9z m-25 -31 c137 -17 166 -25 340 -89 65 -24 117 -27 140 -6 14 13 22 10 71
-23 107 -71 237 -250 252 -347 3 -16 10 -59 17 -94 21 -101 7 -587 -19 -708
-20 -94 -35 -133 -50 -133 -4 0 -14 -11 -21 -25 -7 -14 -17 -25 -22 -25 -4 0
8 31 27 70 19 38 35 75 35 82 0 16 -38 -50 -65 -112 -18 -42 -72 -121 -87
-128 -4 -2 -4 -10 -2 -17 3 -8 -15 -41 -42 -75 -36 -47 -65 -70 -128 -104
-135 -73 -168 -90 -239 -120 -41 -17 -64 -32 -57 -36 8 -5 2 -10 -15 -14 -14
-4 -31 -4 -37 0 -6 4 -8 3 -5 -3 4 -6 -5 -10 -21 -10 -15 0 -75 -7 -133 -16
-110 -18 -252 -15 -334 5 -31 8 -36 12 -23 19 33 19 163 39 251 39 60 1 103 6
122 16 25 12 26 13 5 8 -14 -3 -90 -9 -170 -14 -80 -5 -172 -16 -205 -25 -40
-11 -66 -13 -80 -7 -104 47 -263 131 -320 170 -63 44 -235 222 -235 244 0 5
-9 21 -20 36 -26 35 -76 172 -101 277 -10 44 -22 139 -25 211 -6 119 -5 136
16 199 30 91 82 194 141 282 65 95 223 252 340 335 95 69 250 143 280 135 9
-3 23 -1 30 4 19 12 287 11 389 -1z m-730 -54 c0 -2 -33 -23 -72 -46 -81 -46
-77 -33 5 17 50 30 67 38 67 29z m1598 -751 c0 -27 -3 -72 -8 -100 -6 -40 -7
-25 -8 70 0 75 3 113 8 100 5 -11 9 -42 8 -70z m27 -172 c-3 -25 -9 -43 -12
-40 -2 3 -1 32 3 64 4 32 10 50 12 39 2 -10 1 -38 -3 -63z m102 25 c-3 -7 -5
-2 -5 12 0 14 2 19 5 13 2 -7 2 -19 0 -25z m-372 -668 c-10 -11 -20 -18 -23
-15 -3 3 3 14 13 25 10 11 20 18 23 15 3 -3 -3 -14 -13 -25z m-1750 -81 c26
-34 74 -89 106 -122 33 -34 59 -62 59 -64 0 -4 -31 10 -76 34 -57 30 -164 153
-134 153 5 0 10 8 10 17 0 16 -1 16 -16 1 -14 -14 -14 -18 2 -49 23 -46 119
-135 172 -160 31 -14 42 -24 38 -35 -3 -9 -6 -19 -6 -24 0 -15 -105 -111 -128
-117 -64 -16 -190 56 -228 129 -27 53 -30 73 -11 85 7 4 23 25 37 45 13 20 26
35 29 32 6 -5 80 108 81 124 0 24 18 11 65 -49z m1869 -86 c-55 -103 -74 -124
-159 -173 -77 -43 -183 -86 -192 -76 -2 2 17 17 44 32 55 32 74 46 198 149 49
41 98 89 108 105 36 57 37 30 1 -37z m-266 35 c-8 -13 -37 -35 -64 -50 -49
-26 -233 -92 -240 -86 -2 2 43 24 99 48 56 24 108 48 115 53 13 10 95 56 101
57 2 0 -3 -10 -11 -22z m-1683 -386 c-3 -3 -11 0 -18 7 -9 10 -8 11 6 5 10 -3
15 -9 12 -12z m-601 -167 c-4 -8 -11 -15 -16 -15 -6 0 -5 6 2 15 7 8 14 15 16
15 2 0 1 -7 -2 -15z m222 -100 c18 -13 18 -14 -4 -8 -12 3 -25 9 -28 14 -8 14
10 11 32 -6z m-41 -105 c3 -6 -1 -7 -9 -4 -18 7 -21 14 -7 14 6 0 13 -4 16
-10z m-230 -340 c3 -5 2 -10 -4 -10 -5 0 -13 5 -16 10 -3 6 -2 10 4 10 5 0 13
-4 16 -10z m97 -39 c-18 -22 -32 -44 -32 -49 0 -5 -11 -19 -25 -32 -35 -33
-31 -19 13 42 49 70 65 88 71 83 2 -3 -10 -23 -27 -44z m-57 19 c3 -5 1 -10
-4 -10 -6 0 -11 5 -11 10 0 6 2 10 4 10 3 0 8 -4 11 -10z m-35 -90 c0 -5 -2
-10 -4 -10 -3 0 -8 5 -11 10 -3 6 -1 10 4 10 6 0 11 -4 11 -10z"/>
<path d="M4977 4753 c-26 -14 -46 -28 -43 -30 4 -4 106 46 106 53 0 8 -16 2
-63 -23z"/>
<path d="M5450 3618 c-30 -17 -66 -34 -80 -39 -14 -4 -45 -16 -70 -25 -25 -9
-74 -28 -110 -41 -60 -21 -62 -23 -23 -18 24 3 78 16 120 30 l78 24 -50 -47
c-62 -58 -99 -108 -89 -123 4 -8 32 -10 83 -7 58 4 102 15 184 48 60 23 106
44 103 47 -6 6 -87 -13 -121 -27 -48 -21 -132 -40 -174 -40 l-46 1 97 93 c53
51 115 101 138 111 37 17 48 35 24 42 -5 1 -34 -12 -64 -29z"/>
<path d="M6063 3241 c-18 -9 -35 -22 -38 -29 -3 -8 10 -5 33 9 66 40 70 53 5
20z"/>
<path d="M6948 5148 c-3 -7 0 -35 5 -63 9 -49 8 -50 -24 -75 -80 -60 -105 -88
-93 -107 8 -13 24 -17 65 -18 l54 0 2 -70 c1 -51 6 -72 18 -81 25 -18 45 -6
45 26 0 16 4 31 9 34 4 3 11 18 14 33 12 53 19 56 75 40 28 -9 59 -14 69 -12
10 2 21 4 26 4 20 2 2 42 -38 84 -25 26 -45 52 -45 57 0 5 10 30 22 54 17 37
19 48 9 60 -11 13 -18 13 -62 -5 -55 -21 -73 -17 -107 26 -22 27 -38 32 -44
13z m102 -167 c0 -11 -5 -23 -11 -27 -15 -9 -33 12 -26 30 9 23 37 20 37 -3z"/>
<path d="M4250 5101 c0 -17 -5 -33 -11 -37 -8 -5 -10 3 -7 25 3 21 0 31 -9 31
-8 0 -13 -12 -13 -34 0 -26 5 -35 21 -39 17 -4 24 1 32 23 9 23 13 26 28 17
28 -18 34 0 8 22 -34 29 -49 26 -49 -8z"/>
<path d="M7278 5104 c-16 -8 -28 -22 -28 -31 0 -12 7 -14 32 -9 39 8 53 20 45
40 -8 19 -14 19 -49 0z"/>
<path d="M4113 5088 c-21 -27 -22 -59 -2 -79 23 -23 42 -24 64 -3 20 21 13 29
-13 15 -28 -15 -61 11 -46 35 14 24 34 29 34 10 0 -9 5 -16 11 -16 6 0 9 10 7
23 -3 25 -39 35 -55 15z"/>
<path d="M3869 5051 c18 -22 37 -43 42 -46 17 -11 9 -24 -18 -27 -20 -2 -29
-9 -31 -26 -5 -33 24 -72 53 -72 24 0 51 31 37 44 -3 4 0 11 8 16 11 7 3 23
-36 77 -28 37 -58 70 -69 72 -15 2 -12 -5 14 -38z m59 -123 c4 -33 -21 -39
-38 -9 -16 30 -12 43 13 39 16 -2 23 -11 25 -30z"/>
<path d="M4043 5025 c3 -11 8 -28 12 -37 9 -22 -8 -23 -29 -2 -13 12 -16 12
-16 2 0 -21 21 -38 47 -38 30 0 31 38 2 71 -19 22 -20 22 -16 4z"/>
<path d="M3726 5007 c-15 -14 -34 -23 -42 -20 -21 8 -17 -21 6 -49 11 -12 30
-39 43 -58 12 -19 29 -36 37 -38 18 -3 78 43 68 53 -4 4 -19 -2 -34 -14 -34
-27 -38 -27 -53 6 -10 21 -10 28 1 34 32 19 52 38 46 44 -4 4 -21 -3 -38 -15
-26 -19 -34 -20 -41 -9 -13 21 -11 26 17 48 14 11 24 26 22 32 -2 7 -15 2 -32
-14z"/>
<path d="M10353 5003 c-9 -3 -13 -31 -13 -89 0 -79 -1 -84 -21 -84 -34 0 -99
-72 -99 -108 0 -70 46 -105 115 -88 23 6 25 4 25 -32 0 -22 3 -60 6 -86 8 -58
29 -70 122 -67 61 2 62 1 62 -24 0 -30 49 -85 75 -85 49 0 104 65 89 104 -5
14 32 22 141 29 l39 2 -1 65 c-1 69 8 90 39 90 33 0 75 28 88 59 25 62 -15
124 -78 119 l-37 -3 -10 90 -10 90 -50 3 c-27 2 -77 1 -110 -3 l-60 -6 3 -49
c4 -45 2 -51 -22 -61 -40 -19 -80 3 -73 39 14 69 16 65 -53 84 -62 17 -141 22
-167 11z m150 -48 c56 -6 57 -7 51 -33 -4 -15 -8 -29 -10 -31 -2 -2 6 -17 17
-32 16 -23 28 -29 59 -29 57 0 85 27 85 84 l0 47 82 -3 83 -3 2 -55 c1 -30 1
-64 0 -75 0 -11 1 -30 4 -43 4 -21 6 -22 27 -7 58 41 122 -15 90 -79 -14 -28
-16 -28 -75 -22 l-60 7 7 -87 c5 -68 4 -88 -6 -95 -8 -5 -56 -9 -106 -9 -51 0
-93 -3 -93 -7 0 -5 7 -26 14 -48 13 -35 12 -42 -1 -57 -20 -22 -52 -23 -82 -2
-22 16 -25 40 -10 94 3 12 -13 16 -91 20 l-95 5 -2 84 c-2 92 -12 113 -43 93
-41 -26 -72 -11 -85 39 -10 39 36 73 87 65 l38 -6 0 93 c0 52 3 97 6 100 4 4
16 5 28 2 12 -2 47 -7 79 -10z"/>
<path d="M7340 4891 c0 -9 50 -41 65 -41 3 0 5 9 5 20 0 11 -6 20 -12 20 -7 0
-23 3 -35 6 -14 4 -23 2 -23 -5z"/>
<path d="M259 4813 c-1 -139 3 -209 14 -220 7 -6 24 -9 40 -6 20 4 27 11 27
29 0 19 -5 24 -25 24 -22 0 -25 4 -25 40 0 35 3 40 23 40 23 0 47 17 47 32 0
4 -14 8 -31 8 -27 0 -30 3 -27 27 2 22 9 29 33 33 61 10 26 46 -47 49 -27 1
-28 0 -29 -56z"/>
<path d="M824 4836 c-8 -21 -1 -49 14 -54 8 -2 12 7 12 27 0 33 -17 51 -26 27z"/>
<path d="M2526 4789 c-29 -16 -41 -18 -46 -9 -6 10 -16 10 -44 0 -43 -14 -54
-29 -33 -45 15 -11 14 -13 -8 -25 -45 -24 -26 -50 35 -50 25 0 175 49 203 67
5 3 3 9 -6 14 -9 6 -37 1 -73 -11 -84 -29 -90 -18 -11 20 66 31 81 53 41 57
-10 1 -36 -7 -58 -18z"/>
<path d="M1244 4758 c-31 -60 2 -148 56 -148 20 0 30 5 30 15 0 8 -8 15 -18
15 -42 0 -56 44 -17 54 36 9 45 54 15 78 -32 26 -47 23 -66 -14z m46 -22 c0
-8 -4 -17 -9 -21 -12 -7 -24 12 -16 25 9 15 25 12 25 -4z"/>
<path d="M907 4752 c-25 -27 -23 -102 3 -130 26 -27 42 -28 58 -2 10 17 10 21
-1 26 -8 3 -20 4 -27 2 -8 -2 -16 5 -18 15 -2 11 3 17 16 17 31 0 45 25 35 57
-12 34 -43 41 -66 15z m40 -38 c-9 -9 -28 6 -21 18 4 6 10 6 17 -1 6 -6 8 -13
4 -17z"/>
<path d="M1032 4756 c-29 -9 -32 -13 -26 -36 4 -14 10 -42 13 -63 6 -37 24
-54 28 -26 1 8 5 36 8 62 8 60 18 53 25 -16 4 -37 9 -52 20 -52 12 0 14 11 11
55 -5 89 -14 98 -79 76z"/>
<path d="M1150 4756 c-15 -19 -10 -130 7 -147 15 -15 66 -2 60 14 -2 7 -13 13
-24 15 -23 3 -33 36 -25 77 3 20 9 24 24 19 15 -5 19 -2 16 13 -4 23 -41 29
-58 9z"/>
<path d="M500 4750 c-20 -13 -21 -170 -1 -194 19 -22 43 -2 35 29 -4 18 -1 25
15 30 55 17 62 87 14 125 -29 22 -41 24 -63 10z m60 -54 c14 -25 13 -28 -5
-42 -17 -13 -20 -13 -27 3 -3 10 -7 31 -7 46 -1 35 18 32 39 -7z"/>
<path d="M638 4733 c-24 -28 -28 -50 -17 -83 14 -38 44 -56 65 -39 20 17 17
32 -5 26 -12 -3 -22 1 -25 10 -8 21 -8 21 16 25 16 2 24 12 29 35 3 18 4 35 1
38 -12 11 -50 4 -64 -12z m32 -23 c0 -5 -5 -10 -11 -10 -5 0 -7 5 -4 10 3 6 8
10 11 10 2 0 4 -4 4 -10z"/>
<path d="M833 4738 c-12 -14 -57 -16 -86 -3 -27 12 -31 -1 -13 -39 9 -19 16
-48 16 -64 0 -36 15 -49 35 -32 10 9 13 24 8 56 -5 40 -4 44 16 44 17 0 21 -6
21 -34 0 -33 14 -55 27 -42 9 9 6 93 -4 111 -8 13 -12 14 -20 3z"/>
<path d="M2080 4739 c-52 -4 -230 -11 -395 -14 -242 -5 -303 -9 -315 -20 -11
-12 -12 -17 -2 -27 14 -14 432 -13 627 2 66 5 135 10 153 10 l32 0 0 -77 c1
-61 5 -83 19 -100 11 -13 21 -23 24 -23 9 0 15 138 8 184 -7 43 -32 80 -50 74
-3 -1 -49 -5 -101 -9z"/>
<path d="M370 4733 c0 -5 6 -20 14 -34 11 -22 11 -30 0 -50 -19 -34 -17 -49 5
-49 11 0 22 6 25 13 3 8 9 7 20 -7 23 -29 38 -11 22 28 -8 19 -10 39 -5 48 9
16 1 58 -11 58 -4 0 -11 -8 -15 -17 -6 -17 -7 -17 -16 0 -10 17 -39 24 -39 10z"/>
<path d="M7230 4687 c0 -25 28 -57 49 -57 13 0 12 5 -11 52 -16 34 -38 36 -38
5z"/>
<path d="M1736 4414 c-4 -11 -30 -14 -112 -14 -101 0 -106 -1 -101 -20 3 -13
0 -20 -8 -20 -8 0 -16 -4 -19 -9 -3 -4 46 -8 108 -7 63 0 118 -2 121 -6 4 -4
7 -38 7 -75 0 -37 -1 -166 -2 -286 l-1 -218 -59 3 c-65 3 -92 -10 -71 -36 12
-15 79 -19 566 -32 281 -8 705 -7 771 1 54 7 85 28 68 45 -11 11 -282 17 -867
19 l-337 1 6 288 c3 158 7 289 9 291 2 2 102 2 222 1 355 -4 561 -3 683 4 76
5 127 3 150 -4 19 -7 58 -14 85 -16 109 -9 113 -11 113 -52 2 -595 2 -602 38
-602 22 0 23 2 23 93 0 50 2 128 4 172 16 261 18 392 9 416 -9 23 -20 28 -79
39 -105 19 -389 25 -848 20 -302 -4 -428 -2 -447 6 -21 10 -28 9 -32 -2z"/>
<path d="M4058 4347 c-20 -39 -45 -103 -56 -142 -26 -88 -54 -227 -47 -233 6
-6 10 8 25 93 15 84 63 231 97 298 13 27 23 51 20 53 -2 2 -19 -29 -39 -69z"/>
<path d="M9959 4354 c-11 -13 -14 -57 -14 -193 l0 -176 -25 3 c-14 2 -55 12
-91 23 -78 23 -73 13 -88 202 -6 64 -13 122 -16 127 -3 6 -26 10 -50 10 -69 0
-77 -19 -76 -182 1 -118 7 -176 26 -283 3 -16 8 -70 10 -120 5 -108 21 -222
37 -252 8 -17 19 -21 55 -21 39 0 45 3 54 26 6 15 8 41 4 59 -3 18 -8 89 -10
159 l-4 126 57 -8 c31 -4 73 -7 93 -6 35 1 37 0 44 -41 5 -23 9 -81 10 -129 3
-72 7 -91 26 -117 31 -42 58 -49 80 -22 15 18 17 35 13 104 -3 45 -7 177 -10
292 -5 255 -16 392 -35 410 -25 23 -74 28 -90 9z"/>
<path d="M9246 4286 c-23 -25 -48 -63 -54 -85 -37 -121 -35 -373 4 -487 40
-119 83 -163 178 -184 41 -9 53 -8 74 6 51 34 72 65 72 108 0 69 -42 87 -91
40 -25 -24 -30 -25 -61 -15 -31 10 -37 18 -56 79 -28 90 -29 278 0 332 10 19
18 43 18 53 0 10 11 22 25 27 21 8 33 5 64 -16 33 -21 42 -23 64 -13 38 17 50
55 34 109 -17 58 -49 76 -150 85 l-79 7 -42 -46z"/>
<path d="M8332 4300 c-25 -27 -88 -155 -107 -216 -33 -105 -62 -285 -92 -556
-7 -67 3 -84 52 -94 65 -12 80 5 90 106 14 132 20 145 45 115 15 -18 33 -19
77 -3 43 16 51 5 52 -68 0 -67 19 -104 64 -127 27 -15 39 -17 56 -8 37 20 42
43 31 148 -17 155 -19 170 -30 198 -5 14 -10 40 -10 57 0 17 -4 47 -10 67 -5
20 -19 77 -30 126 -35 156 -65 228 -108 263 -23 18 -59 15 -80 -8z m79 -400
l4 -105 -29 2 c-16 1 -34 7 -39 12 -8 8 7 84 40 205 11 39 21 -9 24 -114z"/>
<path d="M8728 4284 c-23 -12 -28 -22 -30 -57 -1 -23 -3 -58 -4 -77 -5 -68 -4
-305 1 -335 3 -16 10 -73 15 -125 20 -201 39 -268 74 -257 6 2 20 21 30 43 15
31 19 59 18 137 -2 109 3 129 25 98 8 -12 21 -21 30 -21 8 0 57 -42 108 -94
81 -82 121 -116 139 -116 2 0 12 7 20 15 22 22 11 96 -24 163 -28 53 -91 117
-144 144 l-30 15 25 8 c33 11 81 53 96 84 6 14 16 60 22 101 8 62 8 77 -4 91
-8 8 -15 20 -15 26 0 23 -86 105 -144 138 -53 29 -73 35 -122 35 -33 -1 -71
-7 -86 -16z m185 -110 c47 -22 67 -61 67 -126 0 -48 -4 -58 -33 -86 -32 -31
-91 -57 -107 -47 -5 3 -7 55 -5 117 2 61 0 119 -5 128 -18 34 27 41 83 14z"/>
<path d="M7688 4238 c-39 -14 -43 -45 -43 -343 1 -354 14 -444 69 -467 39 -16
78 -18 136 -6 25 6 59 12 75 14 102 13 116 17 135 41 11 14 20 32 20 39 0 28
-56 44 -154 44 -52 0 -97 4 -101 9 -3 6 -8 49 -10 97 -3 48 -8 90 -11 95 -4 8
21 14 96 23 50 5 93 17 108 29 19 15 14 45 -10 58 -13 7 -28 18 -33 26 -16 22
-78 27 -113 9 -17 -9 -35 -16 -40 -16 -5 0 -8 39 -8 87 l1 88 65 13 c111 24
135 35 135 62 0 19 -10 30 -45 48 -24 12 -58 22 -75 22 -26 0 -65 9 -150 33
-11 3 -32 1 -47 -5z"/>
<path d="M857 4233 c-4 -3 -7 -64 -7 -135 0 -105 3 -128 14 -128 12 0 15 23
18 119 2 65 2 126 0 135 -4 17 -14 21 -25 9z"/>
<path d="M7207 4227 c-54 -15 -152 -120 -160 -173 -19 -111 7 -202 75 -265 48
-44 122 -84 139 -73 6 3 35 12 64 19 51 11 55 11 79 -12 14 -13 26 -29 26 -36
0 -28 -61 -116 -91 -131 -46 -23 -140 -21 -190 4 -52 27 -106 19 -115 -17 -4
-13 -1 -30 5 -36 6 -6 11 -19 11 -28 0 -10 24 -38 53 -62 39 -34 69 -50 117
-62 168 -44 300 26 300 159 0 25 4 47 9 50 16 10 20 129 5 185 -24 94 -66 122
-177 119 -87 -3 -119 13 -137 66 -9 29 -8 40 5 66 24 47 69 62 151 51 37 -6
71 -8 76 -5 25 16 -5 104 -49 146 -50 48 -111 59 -196 35z"/>
<path d="M777 4213 c-3 -5 -4 -37 -2 -73 1 -36 3 -91 4 -123 1 -50 4 -58 19
-55 15 3 17 15 13 123 -3 122 -5 135 -21 135 -5 0 -11 -3 -13 -7z"/>
<path d="M10762 4198 c-8 -11 -18 -88 -25 -203 -1 -21 3 -31 15 -33 13 -2 19
10 29 54 11 50 14 54 22 33 17 -44 10 -220 -13 -315 -29 -122 -64 -229 -94
-292 -42 -85 -182 -295 -244 -364 -24 -26 -23 -48 3 -48 24 0 182 219 253 351
48 88 70 148 105 279 41 153 47 226 31 365 l-5 50 23 -29 c21 -25 25 -26 37
-13 17 21 7 50 -30 84 -16 15 -29 33 -29 39 0 13 -43 54 -57 54 -6 0 -15 -6
-21 -12z"/>
<path d="M1830 4185 c-11 -13 -10 -18 6 -30 10 -8 22 -15 27 -15 4 0 7 -44 7
-99 0 -76 -3 -101 -15 -111 -22 -19 0 -40 41 -40 39 0 54 18 29 36 -16 12 -17
24 -11 115 4 57 12 111 17 121 5 10 7 23 4 28 -10 16 -91 12 -105 -5z"/>
<path d="M2173 4192 c-35 -2 -63 -7 -63 -12 0 -6 -1 -13 -2 -17 -1 -5 11 -10
26 -13 l29 -5 -2 -111 c-2 -88 1 -113 13 -123 31 -26 37 -3 32 120 -2 69 -1
119 5 119 18 0 24 2 37 12 31 26 10 34 -75 30z"/>
<path d="M527 4068 c4 -115 13 -155 34 -142 5 3 6 23 3 46 l-7 40 49 -4 c38
-2 49 0 49 12 0 8 -16 18 -40 23 -22 6 -42 11 -44 13 -1 1 9 19 24 38 32 42
25 68 -10 36 l-24 -22 -3 38 c-2 26 -8 40 -19 42 -14 2 -15 -12 -12 -120z"/>
<path d="M1977 4183 c-11 -11 -8 -243 4 -264 18 -34 29 -10 29 64 0 80 8 79
38 -3 11 -31 27 -56 36 -58 14 -3 16 11 16 107 0 113 -11 166 -33 158 -8 -3
-11 -21 -9 -56 2 -28 1 -51 -1 -51 -3 0 -17 25 -32 55 -26 53 -35 62 -48 48z"/>
<path d="M381 4151 c-40 -55 -28 -75 49 -83 50 -6 32 -59 -21 -61 -23 -1 -34
-7 -34 -17 0 -21 36 -24 79 -6 32 14 36 19 36 53 0 48 -14 63 -57 63 -21 0
-33 5 -33 14 0 21 26 38 52 34 15 -2 23 2 23 12 0 10 -12 16 -36 18 -31 3 -40
-2 -58 -27z"/>
<path d="M2265 4170 c-9 -15 2 -251 13 -262 18 -18 77 3 77 27 0 13 -6 19 -16
17 -10 -1 -19 7 -23 20 -10 38 -7 48 14 48 11 0 23 7 27 16 6 17 -15 36 -30
27 -14 -8 -25 15 -19 43 3 17 11 24 28 24 25 0 41 17 28 30 -13 11 -93 20 -99
10z"/>
<path d="M2401 4166 c-8 -9 -11 -54 -9 -132 3 -104 5 -119 21 -122 14 -3 17 4
17 37 0 23 4 41 8 41 5 0 21 -13 37 -30 16 -16 35 -30 42 -30 21 0 15 36 -13
69 -18 21 -23 37 -19 51 4 12 4 39 0 61 -5 30 -14 43 -35 54 -35 18 -35 18
-49 1z m41 -100 c-9 -18 -11 -16 -11 19 0 33 1 37 10 21 8 -12 8 -25 1 -40z"/>
<path d="M2664 4165 c-4 -9 1 -24 10 -34 23 -25 23 -159 -1 -176 -22 -16 -8
-35 26 -35 34 0 62 27 42 40 -10 6 -12 34 -10 111 l4 104 -33 3 c-22 2 -34 -2
-38 -13z"/>
<path d="M2774 4167 c-2 -7 -3 -65 -2 -128 l3 -114 33 -3 c19 -2 40 -1 48 2
21 8 5 36 -22 36 -21 0 -24 5 -24 34 0 26 5 36 21 41 26 9 21 39 -9 43 -16 3
-22 10 -22 28 0 20 5 24 30 24 30 0 44 26 18 34 -46 15 -69 15 -74 3z"/>
<path d="M680 4151 c0 -12 6 -21 16 -21 9 0 14 7 12 17 -5 25 -28 28 -28 4z"/>
<path d="M2610 4158 c0 -7 -5 -31 -11 -52 l-11 -40 -20 47 c-15 33 -26 47 -40
47 -15 0 -18 -4 -13 -17 5 -15 26 -84 62 -205 5 -19 28 -24 37 -10 3 5 10 46
15 93 6 46 14 99 17 117 5 28 4 32 -15 32 -11 0 -21 -6 -21 -12z"/>
<path d="M2890 4138 c1 -66 20 -212 29 -221 17 -17 25 0 32 61 6 61 9 58 34
-30 32 -116 59 -55 53 117 -2 72 -6 90 -18 90 -11 0 -16 -16 -20 -65 l-5 -65
-14 63 c-14 65 -37 83 -49 40 l-6 -23 -6 24 c-8 33 -30 40 -30 9z"/>
<path d="M690 4025 c0 -56 3 -66 16 -63 13 2 17 16 17 63 0 47 -4 61 -17 63
-13 3 -16 -7 -16 -63z"/>
<path d="M1141 4070 c-102 -6 -127 -11 -138 -26 -7 -9 -11 -19 -9 -22 2 -2
116 1 253 7 136 5 269 7 294 4 55 -6 75 11 32 28 -37 14 -278 19 -432 9z"/>
<path d="M3950 3842 c0 -67 3 -122 8 -122 8 0 7 228 -2 237 -3 4 -6 -48 -6
-115z"/>
<path d="M3962 3675 c-1 -22 3 -58 7 -80 8 -34 9 -36 9 -10 0 17 -3 53 -8 80
-7 49 -7 49 -8 10z"/>
<path d="M4000 3490 c6 -11 13 -20 16 -20 2 0 0 9 -6 20 -6 11 -13 20 -16 20
-2 0 0 -9 6 -20z"/>
<path d="M990 3435 c0 -28 -4 -35 -20 -35 -25 0 -26 -20 -1 -27 15 -4 19 -18
24 -75 6 -73 19 -100 43 -91 16 6 19 33 4 33 -6 0 -10 28 -10 64 0 49 4 65 16
70 16 6 16 29 0 26 -13 -2 -26 22 -26 48 0 13 -6 22 -15 22 -10 0 -15 -11 -15
-35z"/>
<path d="M2226 3453 c-3 -10 -6 -48 -7 -86 l-2 -67 -173 6 c-192 8 -521 -10
-594 -31 -25 -7 -69 -16 -98 -20 -66 -7 -82 -14 -82 -32 0 -8 4 -12 9 -9 5 3
14 -1 21 -9 19 -23 92 -19 205 11 75 19 136 27 245 32 202 9 457 8 466 0 3 -4
8 -18 9 -30 1 -13 3 -27 4 -31 0 -5 11 -7 24 -5 22 3 22 4 18 138 -1 74 -5
138 -8 143 -8 13 -32 7 -37 -10z"/>
<path d="M425 3441 c-53 -5 -70 -10 -70 -21 0 -11 10 -14 38 -12 l37 3 1 -58
c1 -32 1 -74 0 -93 -2 -40 11 -66 28 -56 7 5 11 44 11 106 l0 99 33 3 c20 2
32 8 32 18 0 17 -15 19 -110 11z"/>
<path d="M9735 3443 c-38 -2 -79 -8 -90 -13 -11 -5 -105 -14 -210 -20 -104 -6
-221 -12 -260 -15 -38 -2 -122 -7 -185 -10 -339 -17 -487 -28 -755 -59 -231
-26 -361 -28 -823 -11 -176 6 -184 6 -189 -13 -4 -16 -12 -19 -50 -17 -25 2
-66 -3 -91 -11 -26 -7 -61 -14 -78 -14 -19 0 -34 -6 -38 -15 -3 -8 -21 -23
-41 -32 -26 -13 -35 -23 -33 -38 2 -16 10 -20 38 -18 19 1 50 5 68 8 29 7 32
5 32 -18 0 -35 21 -38 153 -21 115 14 184 18 175 9 -2 -3 -22 -7 -44 -9 -213
-23 -275 -35 -282 -55 -4 -12 28 -13 179 -6 101 4 243 9 314 11 154 4 220 9
420 29 120 13 230 14 550 10 634 -9 671 -9 850 -1 94 5 322 9 507 10 244 1
340 4 349 13 9 9 3 13 -27 18 -22 4 -52 11 -68 16 -16 5 -76 9 -132 9 -63 0
-104 4 -104 10 0 6 6 10 13 10 7 0 5 5 -5 10 -15 9 -124 6 -468 -15 -47 -2
-133 -7 -191 -9 l-106 -5 5 26 5 25 178 -6 c120 -4 179 -3 179 4 0 5 -21 10
-47 11 -27 0 -68 4 -93 8 l-45 7 35 6 c47 8 211 0 225 -12 6 -5 36 -6 70 -1
65 8 206 6 404 -8 69 -5 131 -7 138 -4 7 3 13 16 13 29 0 17 -9 28 -32 38
l-33 14 45 2 c25 1 54 5 65 9 16 7 9 11 -33 20 -29 6 -59 11 -67 11 -8 0 -30
16 -48 36 -31 34 -39 37 -112 45 -79 8 -95 8 -230 2z m-1502 -240 c-7 -2 -19
-2 -25 0 -7 3 -2 5 12 5 14 0 19 -2 13 -5z m64 1 c-3 -3 -12 -4 -19 -1 -8 3
-5 6 6 6 11 1 17 -2 13 -5z m-704 -11 c-13 -2 -35 -2 -50 0 -16 2 -5 4 22 4
28 0 40 -2 28 -4z m-20 -50 c-7 -2 -21 -2 -30 0 -10 3 -4 5 12 5 17 0 24 -2
18 -5z m-115 -10 c-15 -2 -42 -2 -60 0 -18 2 -6 4 27 4 33 0 48 -2 33 -4z"/>
<path d="M637 3433 c-6 -10 9 -222 16 -230 3 -3 11 -2 17 2 11 7 7 159 -6 211
-6 24 -18 31 -27 17z"/>
<path d="M873 3326 c-18 -8 -23 -19 -23 -46 0 -19 4 -41 9 -49 11 -18 31 -5
31 20 0 25 17 59 30 59 5 0 10 -17 12 -37 2 -28 8 -39 22 -41 17 -4 18 1 13
37 -9 68 -38 85 -94 57z"/>
<path d="M522 3314 c-23 -16 -30 -44 -10 -44 6 0 20 8 30 17 17 15 20 15 28 3
15 -24 12 -29 -22 -32 -27 -2 -34 -8 -36 -30 -4 -31 18 -42 63 -30 27 8 30 13
33 54 5 70 -35 98 -86 62z"/>
<path d="M725 3305 c-14 -13 -25 -35 -25 -49 0 -48 67 -85 98 -54 20 20 13 29
-20 26 -20 -2 -33 2 -36 11 -3 10 0 12 13 7 23 -8 65 19 65 42 0 46 -57 56
-95 17z m60 -15 c3 -5 -3 -10 -15 -10 -12 0 -18 5 -15 10 3 6 10 10 15 10 5 0
12 -4 15 -10z"/>
<path d="M9500 3226 c0 -9 30 -14 35 -6 4 6 -3 10 -14 10 -12 0 -21 -2 -21 -4z"/>
<path d="M2630 3145 c-18 -22 2 -293 30 -420 44 -192 83 -341 96 -367 8 -15
14 -34 14 -42 0 -8 14 -44 30 -79 17 -36 30 -69 30 -73 0 -4 17 -33 37 -63 20
-31 53 -81 72 -111 62 -95 167 -233 221 -289 91 -94 217 -190 270 -206 14 -4
39 -15 57 -26 18 -10 48 -21 67 -24 38 -8 39 -24 3 -40 -26 -12 -35 -56 -13
-74 12 -10 23 -9 58 3 160 56 212 77 219 88 8 13 5 19 -44 90 -17 26 -45 68
-61 93 -32 52 -45 60 -81 51 -34 -9 -32 -31 10 -100 19 -32 29 -56 21 -53 -8
3 -44 13 -80 22 -74 19 -200 77 -213 98 -4 8 -30 30 -58 50 -52 37 -167 159
-200 212 -11 17 -33 46 -50 67 -62 74 -118 166 -178 291 -51 106 -72 165 -97
272 -11 50 -28 117 -36 150 -8 33 -27 157 -42 275 -26 199 -29 215 -48 218
-11 2 -27 -4 -34 -13z"/>
<path d="M1749 3010 c-9 -5 -27 -34 -39 -65 -12 -30 -26 -55 -31 -55 -5 0 -18
18 -29 40 -20 39 -21 40 -76 40 -55 0 -100 -16 -123 -43 -9 -11 -9 -27 -1 -62
14 -63 5 -72 -56 -51 -66 22 -86 20 -116 -11 -29 -32 -58 -85 -58 -107 0 -8
20 -32 45 -53 52 -43 46 -52 -30 -53 -48 0 -51 -2 -67 -38 -23 -53 -32 -116
-18 -142 6 -11 15 -18 19 -16 10 7 81 -42 81 -56 0 -6 -11 -8 -26 -5 -18 3
-24 1 -20 -9 3 -8 1 -14 -3 -14 -11 0 -31 -55 -31 -84 0 -12 5 -38 10 -58 14
-47 53 -61 118 -42 37 11 45 10 65 -6 22 -18 22 -19 4 -49 -14 -24 -16 -35 -7
-51 11 -21 11 -21 -19 -6 -41 22 -68 20 -81 -4 -6 -11 -15 -20 -21 -20 -6 0
-7 5 -4 11 11 17 -26 49 -56 49 -44 0 -79 -17 -79 -39 0 -26 -10 -51 -20 -51
-5 0 -22 12 -40 26 l-31 26 -39 -26 c-43 -28 -48 -41 -26 -72 13 -16 12 -21
-1 -36 -12 -13 -20 -14 -44 -6 -17 6 -31 9 -33 7 -20 -30 -36 -61 -36 -70 0
-6 12 -25 26 -42 l26 -31 -28 -9 c-16 -6 -35 -14 -41 -20 -16 -12 -17 -61 -1
-104 10 -27 17 -33 40 -33 34 0 35 -6 6 -30 l-23 -18 23 -47 c21 -44 24 -46
55 -40 17 4 34 7 37 7 27 1 29 -4 23 -47 l-6 -45 54 -25 54 -25 31 36 c34 39
54 39 54 -2 0 -22 4 -24 46 -24 32 0 43 -3 38 -12 -4 -6 -3 -8 4 -4 6 3 34 11
62 16 45 8 190 89 190 105 0 3 -17 -6 -37 -19 -31 -21 -161 -76 -178 -76 -3 0
-5 5 -5 10 0 6 7 10 17 10 9 0 49 17 89 37 63 31 75 41 80 67 4 23 16 37 43
53 26 15 41 32 48 57 6 20 7 36 2 36 -5 0 -9 16 -9 35 0 19 5 35 10 35 6 0 10
22 10 50 0 47 -2 51 -40 76 -39 26 -51 44 -30 44 23 0 21 32 -4 65 -21 27 -23
35 -12 35 9 0 33 15 53 34 31 27 42 32 61 25 16 -6 22 -16 22 -38 0 -61 14
-78 75 -91 31 -6 68 -9 81 -6 22 6 24 4 15 -12 -6 -11 -7 -22 -4 -26 12 -12
-8 -6 -30 9 -22 14 -25 13 -57 -20 -34 -35 -34 -35 -17 -65 l17 -29 -36 -3
c-32 -3 -38 -8 -51 -41 -15 -36 -14 -38 13 -74 15 -20 23 -38 17 -40 -32 -11
-43 -29 -35 -57 8 -29 19 -39 55 -50 16 -5 17 -8 2 -36 -14 -28 -14 -32 2 -55
15 -21 24 -24 51 -20 18 4 41 9 49 12 13 5 15 1 11 -22 -11 -56 67 -91 90 -40
15 32 28 32 36 -1 6 -23 10 -25 54 -22 l47 3 3 43 c2 23 6 42 8 42 3 0 17 -9
31 -20 27 -21 47 -17 73 15 10 12 10 21 1 41 -15 34 -15 34 18 34 16 0 37 7
45 16 22 21 21 80 -1 93 -11 7 -14 14 -8 18 19 15 37 60 33 84 -2 17 -11 25
-33 29 -20 4 -29 11 -26 21 14 51 12 71 -9 94 -21 23 -25 23 -51 10 -37 -20
-36 -20 -44 24 -5 31 -13 42 -35 51 -34 14 -76 9 -73 -8 5 -20 -26 -13 -38 9
-9 17 -18 20 -56 17 l-44 -3 6 35 c9 47 12 50 43 50 19 0 36 -11 57 -35 l30
-35 55 16 c83 23 94 35 93 93 -2 64 15 80 60 60 60 -27 85 -10 141 98 16 32
16 33 -13 65 -36 41 -27 68 23 68 59 0 73 24 68 122 -2 46 -22 66 -73 74 -56
9 -54 42 4 69 27 13 41 25 38 35 -2 8 -5 27 -6 41 -1 14 -13 45 -26 70 l-25
44 -54 -3 c-76 -4 -88 6 -68 56 14 36 14 40 -5 67 -11 15 -38 40 -59 55 l-39
28 -42 -24 c-56 -32 -87 -32 -87 0 0 37 -10 56 -39 70 -36 18 -113 28 -132 16z
m127 -115 c9 -32 17 -41 43 -49 26 -7 36 -5 54 11 38 35 46 35 92 6 25 -15 45
-31 45 -34 0 -4 -7 -26 -15 -50 -15 -42 -15 -44 7 -66 21 -20 27 -21 67 -12
58 13 68 8 92 -47 21 -47 20 -74 -4 -74 -26 0 -49 -36 -45 -72 3 -31 6 -34 53
-44 l50 -10 -3 -40 c-6 -84 -11 -94 -45 -94 -40 0 -54 -9 -65 -40 -7 -19 -3
-32 21 -66 l30 -43 -33 -50 c-17 -28 -37 -51 -42 -51 -5 0 -23 9 -39 21 -29
20 -31 20 -65 4 -35 -16 -35 -17 -32 -73 l3 -57 -45 -12 c-45 -11 -45 -11 -77
24 l-32 35 -51 -13 c-49 -12 -51 -14 -66 -64 l-17 -52 -41 12 c-37 11 -41 16
-44 47 -3 32 -9 39 -54 62 -47 25 -52 25 -74 11 -13 -8 -24 -20 -24 -26 0 -18
-62 -5 -74 16 -6 10 -21 28 -33 38 -22 17 -22 20 -7 49 15 29 15 31 -13 60
-24 25 -33 29 -63 24 -19 -3 -43 -7 -54 -8 -12 -2 -24 8 -37 32 -29 54 -25 76
22 107 34 22 40 31 37 56 -3 26 -9 32 -51 44 -26 8 -50 19 -52 26 -3 7 1 37 8
67 12 53 14 55 47 58 64 5 78 11 88 41 9 26 7 32 -19 57 -36 34 -36 40 0 83
26 30 33 32 63 25 49 -11 109 -11 105 1 -2 5 2 16 10 23 10 11 10 19 -2 48
l-14 35 42 19 c59 27 74 25 111 -15 41 -43 82 -47 96 -10 6 14 14 36 20 51 9
23 14 25 62 22 52 -3 53 -3 64 -43z m-667 -905 c12 -37 33 -38 64 -4 24 25 25
25 56 10 26 -14 30 -21 25 -41 -10 -40 12 -58 62 -50 39 5 45 3 60 -21 17 -25
17 -27 -6 -44 -23 -17 -23 -19 -7 -44 10 -14 26 -26 36 -26 45 0 57 -82 14
-88 -15 -2 -25 -13 -30 -29 -5 -21 0 -31 23 -50 28 -22 28 -24 14 -50 -12 -21
-24 -28 -47 -28 -17 0 -40 -9 -52 -19 -19 -18 -20 -21 -6 -42 21 -32 19 -36
-16 -56 -38 -22 -48 -22 -70 -3 -11 11 -26 14 -43 9 -21 -5 -25 -11 -20 -29 7
-29 -19 -55 -55 -55 -22 0 -29 6 -36 33 -13 43 -56 50 -80 13 -14 -21 -22 -25
-44 -20 -41 10 -53 24 -46 56 10 43 -10 60 -63 56 -35 -2 -47 1 -56 15 -9 14
-7 21 7 31 24 19 23 82 -2 96 -11 5 -29 10 -41 10 -17 0 -19 4 -14 28 8 34 20
50 44 57 30 9 32 45 4 67 -28 23 -30 35 -8 59 13 14 20 15 45 5 49 -18 68 21
48 93 -2 9 7 19 23 25 22 8 31 6 47 -8 11 -10 30 -16 42 -14 22 3 29 15 45 76
2 6 19 12 38 12 29 0 36 -5 45 -30z m233 -51 c-14 -12 -61 -19 -67 -9 -3 5 -1
18 5 29 10 19 11 19 40 3 16 -9 26 -20 22 -23z m439 -112 c4 -16 13 -35 20
-43 10 -13 14 -12 29 3 10 10 16 21 14 24 -2 3 3 14 10 25 12 15 18 16 40 6
23 -10 25 -15 16 -37 -15 -40 -12 -75 5 -75 9 0 34 9 56 20 63 33 77 9 34 -60
-14 -22 -25 -42 -25 -45 0 -3 25 -5 55 -5 47 0 55 -3 55 -19 0 -13 -13 -24
-39 -34 -22 -9 -42 -21 -46 -26 -5 -9 40 -44 69 -54 5 -2 6 -16 2 -31 -7 -27
-8 -28 -56 -21 -57 8 -60 3 -30 -54 17 -34 18 -41 4 -51 -12 -11 -21 -8 -51
13 -41 30 -53 27 -53 -11 0 -50 -11 -72 -35 -72 -16 0 -26 10 -38 40 -8 22
-19 40 -24 40 -4 0 -18 -18 -31 -40 -12 -22 -26 -40 -31 -40 -21 0 -33 31 -26
68 8 50 -6 57 -63 31 -65 -30 -81 -10 -36 48 29 38 25 53 -16 53 -67 0 -80 27
-25 53 23 11 35 24 35 36 0 13 -12 26 -35 37 -34 16 -43 36 -27 61 5 8 21 9
50 3 25 -4 45 -4 48 2 4 5 -4 30 -17 54 -21 41 -21 46 -6 61 15 15 19 14 52
-11 19 -15 40 -24 45 -21 6 3 10 25 10 49 0 49 6 58 34 54 12 -2 23 -14 27
-31z m-421 -367 c0 -5 -2 -10 -4 -10 -3 0 -8 5 -11 10 -3 6 -1 10 4 10 6 0 11
-4 11 -10z"/>
<path d="M1660 2651 c-82 -45 -151 -148 -152 -225 l-1 -45 -34 26 c-39 30 -47
11 -12 -28 l20 -24 -11 25 c-11 25 8 6 111 -107 20 -22 66 -57 101 -76 60 -33
66 -34 128 -27 75 8 113 25 156 72 68 72 90 142 68 220 -32 112 -142 191 -283
203 -43 4 -64 1 -91 -14z m220 -64 c39 -12 48 -20 69 -63 33 -69 39 -159 12
-201 -32 -50 -87 -81 -157 -87 l-60 -6 -51 53 c-83 86 -109 159 -78 226 19 43
37 56 110 76 65 17 100 18 155 2z m137 -199 c-2 -13 -4 -5 -4 17 -1 22 1 32 4
23 2 -10 2 -28 0 -40z"/>
<path d="M1490 2330 c6 -11 13 -20 16 -20 2 0 0 9 -6 20 -6 11 -13 20 -16 20
-2 0 0 -9 6 -20z"/>
<path d="M1113 1821 c-114 -52 -108 -203 11 -271 84 -49 163 -34 202 36 36 65
39 111 12 164 -41 80 -137 110 -225 71z m167 -56 c62 -32 43 -117 -36 -162
-48 -28 -84 -29 -116 -3 -51 39 -39 133 21 165 34 19 95 19 131 0z m24 -140
c-4 -9 -16 -21 -28 -27 -19 -10 -19 -9 3 16 28 30 33 32 25 11z"/>
<path d="M1885 1649 c-80 -23 -85 -116 -9 -153 54 -25 81 -21 104 17 33 53 21
114 -27 136 -27 12 -27 12 -68 0z m80 -69 c9 -29 -3 -58 -27 -66 -36 -11 -64
46 -36 74 19 19 56 14 63 -8z"/>
<path d="M9323 2970 c-25 -10 -31 -35 -9 -43 9 -4 19 -49 31 -143 17 -131 17
-137 0 -150 -23 -17 -12 -44 17 -44 30 0 84 43 74 58 -4 7 -13 12 -20 12 -9 0
-16 22 -21 68 -4 37 -9 76 -12 87 -2 11 -5 51 -6 90 -2 75 -10 83 -54 65z"/>
<path d="M9488 2961 c-20 -17 -23 -28 -23 -88 0 -109 15 -163 58 -210 25 -27
68 -30 89 -5 24 26 47 103 42 137 -17 107 -47 165 -86 165 -11 0 -28 4 -38 10
-13 7 -24 5 -42 -9z m70 -50 c42 -11 63 -105 42 -183 -14 -51 -29 -57 -56 -23
-25 32 -50 150 -40 190 7 26 14 28 54 16z"/>
<path d="M9683 2964 c-9 -23 5 -209 20 -274 8 -37 18 -56 30 -58 20 -4 23 32
8 85 -16 54 -25 167 -13 159 6 -3 29 -39 51 -79 91 -159 97 -166 120 -142 12
11 12 21 3 52 -6 21 -14 80 -17 132 -6 97 -18 135 -38 128 -13 -4 -14 -28 -4
-129 4 -38 5 -68 3 -68 -2 0 -27 41 -57 91 -69 120 -91 141 -106 103z"/>
<path d="M9067 2944 c-20 -11 -27 -22 -25 -37 2 -18 9 -22 43 -22 49 0 49 -1
82 -258 6 -43 21 -57 38 -34 10 13 9 33 -1 89 -41 225 -41 228 0 228 27 0 51
24 41 40 -10 16 -146 12 -178 -6z"/>
<path d="M8694 2925 c-25 -10 -32 -20 -37 -52 -4 -22 -2 -55 3 -74 6 -18 10
-51 10 -71 0 -82 54 -168 106 -168 30 0 64 61 49 86 -15 23 -30 18 -33 -11 -5
-40 -40 -33 -59 13 -18 42 -39 213 -29 238 6 15 9 15 29 -5 26 -24 57 -28 57
-8 0 13 -32 47 -55 60 -6 3 -24 -1 -41 -8z"/>
<path d="M8872 2928 c-10 -13 -17 -54 -27 -170 -3 -43 1 -71 17 -113 25 -66
53 -76 46 -17 -3 20 -8 45 -12 54 -6 13 -2 19 20 24 30 8 54 -14 54 -47 0 -47
38 -87 55 -58 16 24 -103 328 -131 336 -6 2 -16 -2 -22 -9z m58 -154 c0 -13
-8 -24 -20 -27 -18 -5 -20 0 -20 42 0 26 3 51 7 55 9 9 32 -40 33 -70z"/>
<path d="M8358 2921 c-31 -3 -59 -9 -63 -13 -4 -4 -2 -22 4 -40 15 -50 31
-180 31 -262 0 -54 4 -77 15 -86 27 -22 32 1 26 110 -4 68 -3 108 4 112 5 4
24 8 42 8 17 0 34 4 37 9 11 17 -23 33 -61 29 -38 -3 -38 -3 -43 39 -7 46 2
53 66 53 42 0 63 24 35 39 -11 6 -23 10 -28 10 -4 -1 -34 -5 -65 -8z"/>
<path d="M7243 2900 c-58 -36 -93 -100 -93 -170 0 -100 101 -199 191 -187 32
4 38 1 48 -19 11 -24 35 -32 46 -14 3 5 -1 22 -8 37 -10 20 -13 51 -9 109 5
90 -4 128 -47 195 -36 57 -85 76 -128 49z m83 -64 c37 -38 54 -89 54 -164 0
-45 -3 -53 -17 -50 -25 4 -43 -10 -36 -27 9 -25 -17 -17 -68 20 -49 37 -53 43
-65 107 -5 29 -1 48 16 80 40 76 67 84 116 34z"/>
<path d="M8535 2913 c-27 -7 -38 -26 -22 -38 16 -12 37 -133 37 -215 0 -45 -4
-62 -15 -66 -8 -4 -15 -15 -15 -25 0 -15 7 -19 33 -19 18 0 42 6 52 14 17 12
18 16 3 47 -20 44 -33 245 -17 265 6 8 9 21 5 29 -5 15 -23 17 -61 8z"/>
<path d="M8135 2900 c-5 -8 0 -19 13 -29 17 -14 22 -36 33 -154 11 -115 11
-140 -1 -147 -22 -14 -3 -40 30 -40 33 0 49 22 32 43 -6 7 -10 28 -9 47 1 34
-5 94 -19 181 -4 26 -2 49 6 65 16 30 12 34 -38 41 -26 3 -42 1 -47 -7z"/>
<path d="M7802 2865 c-7 -14 -12 -49 -12 -78 0 -29 -5 -92 -10 -141 -11 -93
-7 -126 15 -126 17 0 25 23 25 76 0 31 4 44 14 44 8 0 21 3 30 6 11 4 17 -2
22 -23 4 -15 13 -41 21 -57 13 -25 17 -27 29 -14 13 12 9 31 -26 144 -51 159
-66 194 -83 194 -8 0 -19 -11 -25 -25z m57 -161 c1 -7 -6 -14 -14 -18 -12 -4
-15 4 -14 47 l1 52 13 -35 c7 -19 14 -40 14 -46z"/>
<path d="M7972 2882 c-10 -7 -11 -19 -2 -56 6 -26 14 -97 19 -158 6 -74 14
-115 24 -125 29 -29 135 6 124 41 -2 6 -25 12 -50 14 -53 3 -52 2 -61 112 -9
119 -21 180 -34 180 -4 0 -13 -4 -20 -8z"/>
<path d="M7487 2866 c-3 -8 -4 -52 -2 -97 7 -148 91 -272 161 -237 54 26 69
60 69 161 0 148 -33 223 -75 172 -11 -13 -10 -19 7 -35 41 -37 42 -210 2 -246
-17 -15 -22 -16 -45 -3 -43 23 -72 100 -76 204 -2 73 -6 90 -19 93 -9 2 -19
-4 -22 -12z"/>
<path d="M6245 2840 c-3 -5 -1 -10 4 -10 6 0 11 5 11 10 0 6 -2 10 -4 10 -3 0
-8 -4 -11 -10z"/>
<path d="M6174 2785 c-10 -8 -14 -15 -8 -15 6 0 17 7 24 15 16 19 9 19 -16 0z"/>
<path d="M6119 2749 l-24 -20 28 17 c15 9 27 18 27 20 0 8 -8 4 -31 -17z"/>
<path d="M4906 2695 c10 -8 26 -14 34 -14 9 0 4 6 -10 14 -33 19 -49 19 -24 0z"/>
<path d="M5930 2645 c-14 -8 -20 -14 -15 -14 6 0 21 6 35 14 14 8 21 14 15 14
-5 0 -21 -6 -35 -14z"/>
<path d="M10175 2614 c-33 -7 -65 -11 -72 -9 -7 2 -61 -3 -120 -11 -212 -29
-211 -28 -188 -11 19 16 18 16 -27 17 -49 0 -66 -15 -25 -23 19 -4 18 -4 -5
-6 -24 -1 -28 -5 -28 -31 0 -18 -6 -33 -15 -36 -8 -3 -17 -22 -21 -41 -6 -30
6 -257 22 -418 14 -145 16 -378 4 -482 -9 -80 -9 -118 -2 -125 7 -7 13 3 19
33 l10 44 11 -40 c16 -53 15 -130 0 -155 -11 -17 -10 -22 2 -30 11 -7 9 -11
-12 -19 -14 -5 -29 -15 -33 -20 -10 -17 18 -23 50 -11 17 6 31 7 34 2 6 -9 41
-7 314 16 91 8 89 12 52 -102 -14 -43 -23 -82 -20 -87 9 -14 26 -11 47 7 16
16 19 15 36 -6 30 -37 41 -20 72 115 21 88 21 87 35 75 7 -6 32 -55 56 -110
24 -55 47 -100 51 -100 4 0 14 14 23 30 11 21 23 30 40 30 14 0 25 4 25 8 0 5
-18 38 -40 75 -22 36 -40 69 -40 73 0 4 87 3 194 -1 136 -5 196 -4 200 4 4 6
1 11 -7 11 -18 0 -10 50 11 66 13 9 14 38 8 190 -3 98 -8 303 -11 454 -3 151
-10 319 -15 373 -6 54 -10 129 -10 166 0 52 -4 72 -17 82 -23 20 -522 22 -608
3z m554 -22 l34 -2 -9 -227 c-12 -326 -14 -687 -4 -763 5 -36 12 -111 15 -167
l6 -103 -83 -1 c-46 -1 -87 -1 -91 0 -5 1 -35 4 -68 8 -62 6 -69 12 -44 33 9
7 15 20 13 29 -1 9 4 27 11 39 10 18 10 30 1 51 -6 16 -8 40 -5 54 5 20 1 31
-18 47 -14 12 -23 28 -21 34 9 23 -35 50 -89 53 -88 6 -118 3 -140 -12 -12 -8
-34 -15 -50 -15 -24 0 -31 -7 -52 -52 -13 -29 -33 -67 -45 -84 l-20 -31 20
-26 c15 -18 19 -34 14 -52 -4 -15 -1 -32 7 -41 11 -13 -4 -15 -147 -12 l-159
3 -6 51 c-8 68 -18 254 -24 484 -3 102 -8 242 -11 312 -5 109 -3 130 10 144
12 12 16 36 16 104 l0 89 33 6 c125 23 685 55 847 49 14 0 40 -2 59 -2z m75
-488 c3 -142 8 -367 12 -500 5 -154 4 -243 -3 -247 -16 -10 -34 269 -34 533 0
228 9 485 17 477 2 -2 6 -120 8 -263z m-1077 -566 c-3 -7 -5 -2 -5 12 0 14 2
19 5 13 2 -7 2 -19 0 -25z m641 10 c7 -7 12 -38 12 -69 0 -74 -19 -99 -82
-106 -42 -5 -49 -2 -73 23 -22 24 -25 34 -20 69 12 74 31 89 121 94 16 0 35
-4 42 -11z m-413 -258 c-3 -5 -12 -10 -18 -10 -7 0 -6 4 3 10 19 12 23 12 15
0z m802 -7 c-20 -2 -52 -2 -70 0 -17 2 0 4 38 4 39 0 53 -2 32 -4z"/>
<path d="M10370 2410 c-52 -4 -176 -10 -275 -14 -184 -5 -225 -11 -225 -29 0
-6 80 -7 243 -2 367 11 442 17 442 35 0 18 -49 21 -185 10z"/>
<path d="M10445 2219 c-22 -4 -69 -8 -105 -8 -113 -1 -435 -24 -444 -32 -12
-11 77 -22 116 -15 29 5 507 36 566 36 13 0 22 6 22 15 0 12 -13 15 -57 14
-32 -1 -76 -5 -98 -10z"/>
<path d="M10130 1940 c-30 -4 -88 -11 -127 -15 -114 -12 -90 -29 30 -21 56 4
190 11 297 16 221 9 200 7 200 20 0 11 -311 11 -400 0z"/>
<path d="M10507 1763 c-1 -1 -94 -4 -207 -8 -113 -3 -239 -12 -280 -19 -41 -7
-81 -11 -87 -9 -7 3 -13 0 -13 -6 0 -13 90 -14 178 -1 35 5 156 10 270 11 222
2 242 4 242 25 0 10 -14 13 -51 11 -28 -1 -51 -3 -52 -4z"/>
<path d="M10310 1508 c-21 -29 -38 -42 -50 -40 -17 3 -18 0 -9 -27 12 -35 26
-40 36 -13 4 9 22 38 40 64 20 27 29 49 24 53 -6 3 -24 -14 -41 -37z"/>
<path d="M4366 2552 l-19 -27 24 22 c12 12 21 24 18 27 -2 2 -13 -8 -23 -22z"/>
<path d="M4269 2433 c-13 -16 -12 -17 4 -4 9 7 17 15 17 17 0 8 -8 3 -21 -13z"/>
<path d="M1176 2367 c3 -10 9 -15 12 -12 3 3 0 11 -7 18 -10 9 -11 8 -5 -6z"/>
<path d="M8124 2272 c3 -25 6 -87 6 -138 0 -56 4 -94 10 -94 6 0 10 27 10 60
0 33 3 60 6 60 3 0 30 -16 60 -36 58 -39 86 -40 39 -2 -16 13 -33 26 -39 30
-6 4 0 17 17 32 32 29 36 74 10 104 -13 14 -34 22 -72 25 l-53 4 6 -45z m106
-1 c24 -46 9 -70 -52 -85 -28 -6 -28 -6 -28 49 l0 55 35 0 c24 0 37 -6 45 -19z"/>
<path d="M8335 2312 c-3 -3 -5 -51 -5 -107 0 -113 10 -138 50 -131 14 2 28 5
33 5 4 1 7 6 7 12 0 7 -10 9 -25 7 -31 -6 -46 11 -43 51 2 27 6 31 30 31 15 0
30 5 33 10 4 6 -6 10 -24 10 -36 0 -40 6 -34 47 4 25 10 32 25 30 35 -4 30 18
-7 29 -19 6 -37 9 -40 6z"/>
<path d="M8485 2294 c-26 -40 -8 -72 42 -76 35 -3 38 -6 41 -36 4 -40 -12 -62
-44 -62 -24 0 -34 -19 -11 -21 57 -5 77 16 77 83 0 54 -20 73 -66 62 -24 -6
-25 -4 -22 22 2 23 9 30 31 32 32 4 26 22 -7 22 -15 0 -30 -10 -41 -26z"/>
<path d="M8635 2310 c-10 -16 4 -138 20 -176 16 -38 60 -63 79 -44 12 12 13
140 2 184 -10 42 -28 31 -20 -11 7 -37 9 -68 5 -125 -2 -40 -29 -36 -47 7 -7
19 -14 63 -14 99 0 61 -11 89 -25 66z"/>
<path d="M8995 2310 c-42 -4 -50 -8 -48 -25 1 -11 5 -56 10 -100 l8 -80 33 -3
c36 -4 45 15 10 20 -19 2 -24 10 -26 41 -3 35 -2 37 27 37 17 0 31 5 31 10 0
6 -9 10 -19 10 -25 0 -51 26 -51 51 0 15 7 19 39 19 22 0 42 4 46 9 8 15 -5
17 -60 11z"/>
<path d="M8817 2294 c-10 -11 -9 -214 2 -214 16 0 23 39 16 91 -4 31 -3 49 3
49 6 0 12 -10 14 -22 2 -12 9 -23 16 -26 8 -2 12 10 12 44 0 64 8 52 19 -31
14 -96 35 -113 26 -20 -7 79 -22 135 -36 135 -5 0 -14 -9 -21 -19 -11 -18 -12
-18 -27 1 -9 11 -20 16 -24 12z"/>
<path d="M6135 2239 c-128 -8 -175 -20 -310 -79 -118 -52 -202 -107 -251 -163
-57 -67 -92 -147 -64 -147 6 0 10 7 10 15 0 22 61 114 96 146 85 78 300 179
424 200 30 5 125 9 210 9 134 0 167 -3 241 -23 48 -14 110 -37 138 -52 43 -24
51 -33 51 -57 0 -26 3 -29 28 -26 19 2 28 9 30 26 2 12 -1 22 -7 22 -6 0 -29
13 -51 29 -47 34 -186 87 -251 95 -85 11 -185 13 -294 5z"/>
<path d="M3969 2043 c-13 -16 -12 -17 4 -4 16 13 21 21 13 21 -2 0 -10 -8 -17
-17z"/>
<path d="M6383 1928 c-29 -33 -103 -140 -103 -150 0 -21 20 -3 65 60 26 37 55
73 64 80 10 8 12 15 5 22 -7 7 -17 3 -31 -12z"/>
<path d="M7500 1936 c0 -8 5 -18 10 -21 6 -3 10 -13 10 -22 0 -13 -3 -13 -26
2 -30 20 -45 12 -21 -12 9 -9 30 -16 47 -16 39 0 54 -39 24 -63 -18 -14 -18
-14 6 -12 33 4 37 34 12 92 -21 46 -62 81 -62 52z"/>
<path d="M8481 1898 c-61 -37 -94 -90 -111 -175 -8 -47 -7 -57 12 -90 30 -54
88 -113 125 -129 38 -16 111 -18 148 -4 15 6 51 26 81 46 44 29 57 45 73 87
31 85 30 118 -7 175 -50 77 -131 122 -221 122 -35 0 -60 -8 -100 -32z m219
-26 c71 -35 98 -140 60 -231 -34 -78 -101 -125 -115 -81 -9 29 -28 25 -22 -6
4 -25 4 -25 -52 -19 -81 10 -134 53 -147 123 -6 28 -4 32 15 32 11 0 21 5 21
10 0 6 -6 10 -14 10 -43 0 -19 71 43 127 47 43 71 53 71 31 0 -7 5 -5 11 5 13
22 82 22 129 -1z m-225 -32 c-3 -5 -11 -10 -16 -10 -6 0 -7 5 -4 10 3 6 11 10
16 10 6 0 7 -4 4 -10z"/>
<path d="M8584 1843 c12 -41 16 -89 9 -99 -5 -6 -20 -15 -35 -20 -30 -10 -38
-30 -10 -27 88 13 94 15 87 37 -4 11 -11 40 -16 64 -5 24 -11 48 -14 53 -11
16 -27 10 -21 -8z"/>
<path d="M6164 1896 c-3 -8 -4 -29 -2 -48 4 -43 42 -53 59 -14 17 38 4 76 -27
76 -13 0 -27 -6 -30 -14z m40 -49 c-7 -18 -24 -23 -24 -8 0 22 13 42 22 33 5
-5 6 -16 2 -25z"/>
<path d="M6063 1890 c-33 -13 -28 -23 7 -15 31 7 44 -10 15 -21 -24 -9 -17
-24 10 -24 38 0 30 -18 -16 -36 -26 -11 -37 -20 -30 -27 12 -12 96 33 96 53 0
8 -11 17 -25 20 -17 4 -21 8 -12 14 6 4 12 16 12 27 0 21 -20 24 -57 9z"/>
<path d="M7050 1882 c0 -4 7 -17 15 -29 13 -19 13 -22 0 -27 -22 -8 -18 -28 4
-21 13 4 30 -9 65 -50 49 -56 76 -70 76 -36 0 22 -25 45 -39 37 -6 -4 -22 11
-37 33 -24 37 -25 41 -10 57 21 21 12 32 -10 13 -15 -12 -19 -11 -32 9 -14 22
-32 30 -32 14z"/>
<path d="M7366 1874 c-3 -9 -6 -29 -6 -45 0 -35 22 -39 44 -7 9 12 17 20 20
17 8 -8 9 -34 2 -51 -10 -23 -1 -48 18 -48 24 0 23 51 -2 103 -13 26 -27 47
-32 47 -4 0 -10 -13 -13 -30 -4 -16 -11 -30 -17 -30 -13 0 -13 16 0 41 6 11 7
19 1 19 -5 0 -12 -7 -15 -16z"/>
<path d="M6270 1865 c0 -9 5 -15 11 -13 6 2 11 8 11 13 0 5 -5 11 -11 13 -6 2
-11 -4 -11 -13z"/>
<path d="M6380 1830 c0 -6 7 -10 15 -10 8 0 15 2 15 4 0 2 -7 6 -15 10 -8 3
-15 1 -15 -4z"/>
<path d="M7242 1828 c-18 -18 -14 -53 7 -72 21 -19 62 -18 69 2 3 9 -3 11 -22
6 -28 -7 -37 10 -11 20 21 8 19 33 -4 46 -24 13 -24 13 -39 -2z m30 -23 c0 -5
-5 -11 -11 -13 -6 -2 -11 4 -11 13 0 9 5 15 11 13 6 -2 11 -8 11 -13z"/>
<path d="M6753 1733 c6 -33 3 -41 -21 -60 -21 -17 -23 -22 -10 -23 9 0 20 5
23 10 13 22 32 8 52 -40 28 -67 74 -86 59 -25 -4 17 -12 25 -20 22 -8 -3 -20
9 -30 29 -20 43 -20 41 4 47 11 3 20 10 20 17 0 6 -8 9 -18 6 -12 -4 -21 3
-30 24 -19 43 -36 38 -29 -7z"/>
<path d="M7000 1737 c-45 -22 -36 -97 11 -97 14 0 21 9 25 29 5 25 9 28 24 19
19 -12 55 -3 45 11 -3 6 -12 8 -19 5 -8 -3 -23 6 -34 20 -23 30 -20 29 -52 13z
m18 -56 c3 -16 -1 -22 -10 -19 -7 3 -15 15 -16 27 -3 16 1 22 10 19 7 -3 15
-15 16 -27z"/>
<path d="M5130 1722 c-19 -1 -49 -10 -67 -18 -17 -8 -45 -17 -62 -20 -52 -11
-161 -152 -161 -210 0 -9 -12 -54 -26 -99 -24 -76 -26 -96 -22 -217 l3 -133
45 -80 c57 -101 109 -153 192 -194 124 -61 342 -77 443 -32 l45 20 -37 63
c-48 85 -93 176 -147 297 -50 114 -52 133 -18 266 12 44 24 109 27 145 4 36
13 91 20 122 l13 57 -52 15 c-55 16 -139 24 -196 18z m191 -121 c-8 -45 -18
-81 -21 -81 -5 0 8 129 16 158 2 7 7 11 12 8 4 -2 1 -41 -7 -85z m-326 -42
c-28 -29 -58 -60 -67 -70 -10 -11 -18 -14 -18 -8 0 12 116 129 127 129 4 0
-15 -23 -42 -51z m35 -325 c0 -8 -4 -12 -10 -9 -5 3 -10 10 -10 16 0 5 5 9 10
9 6 0 10 -7 10 -16z m304 -220 c3 -8 2 -12 -4 -9 -6 3 -10 10 -10 16 0 14 7
11 14 -7z m-376 -37 c6 0 12 -6 12 -13 0 -26 -22 -25 -48 1 l-27 28 25 -8 c14
-5 31 -8 38 -8z m266 -8 c-3 -5 -10 -7 -15 -3 -5 3 -7 10 -3 15 3 5 10 7 15 3
5 -3 7 -10 3 -15z m26 -44 c10 -12 10 -15 -4 -15 -9 0 -16 7 -16 15 0 8 2 15
4 15 2 0 9 -7 16 -15z m170 -95 c6 -11 7 -20 2 -20 -6 0 -12 9 -15 20 -3 11
-3 20 -1 20 2 0 8 -9 14 -20z"/>
<path d="M6860 1680 c0 -11 8 -24 17 -27 9 -4 27 -18 40 -32 l22 -26 1 38 c0
20 5 37 10 37 6 0 10 5 10 10 0 14 -38 12 -43 -2 -3 -10 -9 -8 -24 5 -25 22
-33 22 -33 -3z"/>
<path d="M6200 1660 c0 -23 5 -31 25 -36 22 -5 25 -12 25 -49 0 -23 3 -57 6
-74 l7 -31 -64 0 c-82 0 -292 -31 -281 -42 4 -4 50 -1 102 8 52 8 133 16 179
16 l83 0 -7 112 c-8 114 -12 126 -52 126 -19 0 -23 -6 -23 -30z"/>
<path d="M6597 1678 c-21 -17 -38 -63 -30 -84 5 -14 16 -16 70 -11 58 6 63 5
63 -14 0 -27 -47 -69 -76 -69 -13 0 -24 -4 -24 -10 0 -21 51 -8 85 21 29 26
35 38 33 63 l-3 31 -62 -3 c-58 -3 -63 -1 -63 18 0 26 35 61 55 54 8 -4 15 -1
15 5 0 15 -42 14 -63 -1z"/>
<path d="M5454 1624 c-3 -16 -17 -67 -31 -114 -13 -47 -31 -123 -38 -169 -16
-93 -12 -104 40 -114 17 -3 59 -10 95 -17 164 -29 227 -43 258 -57 18 -9 35
-13 38 -10 4 3 8 44 11 90 5 75 3 92 -23 162 -21 55 -43 93 -76 130 -54 59
-154 115 -222 122 -43 5 -45 4 -52 -23z m150 -29 c80 -40 140 -107 171 -188
29 -77 46 -195 27 -183 -7 4 -12 12 -12 17 0 21 -149 319 -159 319 -6 0 6 -35
25 -77 20 -43 54 -118 76 -168 22 -49 46 -103 53 -118 13 -25 12 -28 -3 -23
-9 3 -48 12 -87 22 -38 9 -75 24 -82 33 -7 9 -41 71 -75 138 -57 112 -78 142
-78 112 0 -6 27 -63 60 -128 33 -65 60 -121 60 -124 0 -4 -15 -7 -32 -7 -32 0
-35 4 -79 97 l-47 96 25 91 c14 50 27 98 30 108 7 23 61 16 127 -17z m-154
-296 l31 -61 -43 7 c-24 4 -44 8 -46 10 -1 1 2 14 8 29 5 15 10 38 10 52 0 13
2 24 5 24 3 0 19 -27 35 -61z"/>
<path d="M5501 1615 c-1 -9 194 -393 204 -404 2 -1 9 0 15 4 7 4 0 25 -21 62
-18 30 -59 109 -93 174 -60 116 -104 184 -105 164z"/>
<path d="M7344 1636 c-3 -8 -4 -25 -2 -38 2 -18 9 -23 31 -23 27 1 27 0 27
-62 0 -61 -1 -63 -25 -63 -14 0 -25 -4 -25 -10 0 -5 11 -10 25 -10 19 0 25 -6
27 -22 5 -80 4 -114 -6 -120 -8 -6 -7 -10 2 -16 7 -5 15 -25 19 -46 4 -28 2
-40 -12 -49 -15 -12 -15 -14 -1 -26 29 -25 16 -31 -61 -31 -48 0 -73 4 -64 9
11 7 11 9 0 13 -11 4 -13 34 -12 145 1 77 7 152 13 167 l10 27 -61 -3 -60 -3
0 -182 0 -181 -35 -6 c-39 -8 -59 0 -47 17 4 7 6 68 3 136 l-5 124 -36 0 c-43
0 -64 -10 -51 -26 5 -7 9 -67 9 -134 l-1 -123 -54 0 -54 0 7 64 c3 35 3 80 0
100 -6 31 -11 36 -36 36 -15 0 -31 -6 -36 -12 -4 -7 -6 -52 -5 -99 3 -65 0
-88 -10 -91 -7 -3 -48 -2 -91 1 -80 7 -97 1 -97 -31 0 -21 49 -25 68 -6 8 8
54 11 154 9 79 -1 204 3 278 9 75 6 170 12 212 14 41 2 80 6 86 10 16 9 20 51
11 108 -7 43 -6 55 7 65 13 10 13 12 1 20 -9 5 -17 33 -22 71 l-7 62 31 6 c17
4 31 11 31 17 0 5 -13 7 -31 3 l-32 -6 6 89 c4 59 2 92 -6 100 -16 16 -67 14
-73 -3z m46 -16 c0 -5 -4 -10 -10 -10 -5 0 -10 5 -10 10 0 6 5 10 10 10 6 0
10 -4 10 -10z m-140 -210 c0 -5 -5 -10 -11 -10 -5 0 -7 5 -4 10 3 6 8 10 11
10 2 0 4 -4 4 -10z m-53 -142 c-2 -29 -3 -8 -3 47 0 55 1 79 3 53 2 -26 2 -71
0 -100z m51 70 c-2 -6 -10 -14 -16 -16 -7 -2 -10 2 -6 12 7 18 28 22 22 4z
m-189 -119 c-20 -12 -22 -4 -7 20 11 18 14 19 16 5 2 -9 -2 -20 -9 -25z m181
6 c0 -8 -4 -15 -10 -15 -5 0 -7 7 -4 15 4 8 8 15 10 15 2 0 4 -7 4 -15z m-25
-103 c-8 -9 -25 20 -18 31 3 5 10 2 15 -7 6 -10 7 -20 3 -24z m-325 -12 c0 -5
-4 -10 -10 -10 -5 0 -10 5 -10 10 0 6 5 10 10 10 6 0 10 -4 10 -10z"/>
<path d="M2818 1603 c-15 -10 -33 -30 -39 -46 -10 -24 -9 -32 10 -58 l22 -30
-34 -38 c-37 -41 -74 -128 -84 -196 l-5 -43 125 -7 c70 -4 133 -5 140 -2 20 7
30 109 16 160 -6 23 -20 59 -31 80 -18 36 -18 40 -3 57 27 30 30 81 5 113 -26
32 -79 37 -122 10z m106 -25 c19 -26 12 -66 -16 -90 -28 -25 -53 -22 -88 10
-27 25 -29 29 -17 52 11 22 60 48 94 49 6 1 19 -9 27 -21z m-110 -191 c-17
-61 -17 -66 -1 -91 18 -27 33 -32 56 -17 10 7 14 25 12 61 -2 61 6 110 20 110
6 0 21 -25 35 -56 20 -46 24 -69 22 -128 l-3 -71 -120 4 c-66 1 -123 5 -126 7
-11 6 10 95 35 151 23 48 73 109 83 99 2 -2 -4 -33 -13 -69z m56 53 c0 -5 -4
-10 -10 -10 -5 0 -10 5 -10 10 0 6 5 10 10 10 6 0 10 -4 10 -10z m-10 -84 c0
-59 -13 -79 -30 -46 -8 15 -8 31 1 60 17 56 29 50 29 -14z"/>
<path d="M2610 1453 c-26 -10 -60 -46 -60 -65 0 -24 4 -23 34 7 14 14 33 25
43 25 10 0 24 9 31 20 11 18 10 20 -10 19 -13 0 -30 -3 -38 -6z"/>
<path d="M3083 1426 c21 -19 40 -47 43 -65 4 -17 10 -31 15 -31 26 0 -8 90
-42 114 -43 30 -54 17 -16 -18z"/>
<path d="M9365 1334 c6 -75 4 -75 -28 -14 -12 24 -26 43 -32 42 -10 -2 -10
-13 -5 -127 l3 -70 8 64 c4 35 10 65 12 68 2 2 14 -23 27 -57 12 -33 27 -60
32 -60 15 0 6 212 -10 218 -9 3 -11 -12 -7 -64z"/>
<path d="M8580 1372 c0 -4 4 -12 9 -17 12 -12 20 -194 9 -201 -15 -9 -8 -24
11 -24 18 0 19 9 19 125 l0 125 -24 0 c-13 0 -24 -4 -24 -8z"/>
<path d="M8708 1353 c-6 -15 -12 -68 -12 -116 -1 -75 2 -91 17 -102 11 -8 25
-11 33 -8 19 7 28 43 15 56 -9 9 -13 6 -17 -11 -4 -12 -10 -22 -15 -22 -15 0
-22 50 -15 116 9 84 14 96 38 88 15 -4 19 -2 16 7 -3 8 -14 15 -26 17 -16 3
-25 -4 -34 -25z"/>
<path d="M9010 1373 c-77 -11 -90 -15 -90 -23 0 -6 14 -10 30 -10 l30 0 1 -70
c1 -38 3 -74 4 -80 1 -5 3 -15 4 -21 0 -5 5 -8 10 -5 5 3 6 46 3 96 -5 87 -4
90 17 90 12 0 21 6 21 15 0 8 -1 14 -2 14 -2 -1 -14 -3 -28 -6z"/>
<path d="M9077 1358 c4 -13 8 -65 8 -116 0 -75 3 -92 15 -92 12 0 15 19 15
115 0 114 0 115 -23 115 -20 0 -22 -3 -15 -22z"/>
<path d="M9174 1345 c-22 -52 -19 -140 6 -165 22 -22 29 -24 47 -12 34 21 45
150 17 190 -23 33 -52 28 -70 -13z m57 -6 c13 -26 7 -125 -9 -141 -24 -24 -42
0 -42 56 0 90 25 132 51 85z"/>
<path d="M8464 1284 c12 -156 11 -156 54 -152 38 3 47 20 15 26 -32 7 -38 21
-43 114 -3 64 -9 93 -18 96 -11 3 -13 -12 -8 -84z"/>
<path d="M8846 1361 c-8 -12 -36 -160 -36 -188 0 -13 5 -23 10 -23 6 0 10 11
10 25 0 21 5 25 30 25 19 0 33 -6 35 -15 3 -8 7 -23 10 -32 4 -11 9 -13 16 -6
7 7 5 24 -5 54 -8 24 -21 70 -30 101 -16 57 -30 77 -40 59z m28 -103 c6 -34 5
-38 -15 -38 -19 0 -21 4 -15 31 3 17 6 41 6 53 1 30 16 2 24 -46z"/>
<path d="M8040 1341 c-5 -11 -10 -42 -10 -68 0 -27 -5 -54 -11 -60 -7 -7 -8
-17 -3 -25 5 -7 9 -25 9 -40 0 -46 20 -36 23 12 5 71 44 83 63 20 15 -48 35
-55 24 -7 -4 17 -8 42 -7 55 0 12 -4 22 -8 22 -5 0 -20 25 -34 55 -14 30 -27
55 -30 55 -3 0 -10 -9 -16 -19z m37 -98 c-17 -22 -27 -14 -27 20 0 45 11 54
26 20 7 -19 8 -32 1 -40z"/>
<path d="M8193 1348 c-24 -12 -29 -23 -14 -32 5 -3 9 -40 9 -81 1 -42 4 -80 7
-85 14 -23 22 -6 17 40 -4 48 -4 50 21 50 28 0 57 32 57 62 0 23 -35 58 -57
57 -10 0 -28 -5 -40 -11z m61 -24 c28 -27 12 -64 -26 -64 -14 0 -18 8 -18 33
0 49 16 60 44 31z"/>
<path d="M8329 1348 c-1 -7 0 -24 1 -38 4 -43 6 -78 8 -130 3 -67 22 -64 22 3
0 51 1 53 35 66 40 14 54 48 36 87 -9 20 -18 24 -56 24 -29 0 -45 -5 -46 -12z
m81 -17 c0 -5 3 -16 6 -24 3 -10 -4 -22 -21 -33 -23 -15 -28 -15 -36 -3 -5 8
-9 26 -9 42 0 23 4 27 30 27 17 0 30 -4 30 -9z"/>
<path d="M2413 1270 c-44 -18 -58 -90 -24 -131 18 -22 18 -24 -6 -68 -17 -33
-24 -65 -26 -116 l-2 -70 112 -3 112 -3 7 26 c10 40 -5 125 -30 176 -20 39
-22 48 -10 64 38 51 -11 136 -78 134 -18 0 -43 -4 -55 -9z m117 -40 c46 -65
-27 -143 -99 -106 -38 20 -57 66 -40 98 17 32 28 38 76 38 35 0 45 -5 63 -30z
m-26 -167 c11 -71 8 -93 -14 -93 -24 0 -26 6 -35 78 -5 50 -5 52 18 52 20 0
25 -6 31 -37z m-94 -33 c0 -44 -2 -50 -21 -50 -22 0 -22 14 1 75 14 38 20 31
20 -25z m150 4 c0 -7 3 -19 6 -28 4 -11 1 -16 -10 -16 -11 0 -16 9 -16 29 0
16 -3 38 -6 48 -5 16 -4 16 10 -1 9 -11 16 -25 16 -32z m10 -74 c0 -5 -4 -10
-10 -10 -5 0 -10 5 -10 10 0 6 5 10 10 10 6 0 10 -4 10 -10z"/>
<path d="M3173 1235 c-17 -7 -36 -22 -42 -33 -6 -11 -24 -25 -41 -30 -50 -18
-34 -52 24 -52 14 0 28 -10 36 -24 11 -21 10 -29 -9 -60 -26 -42 -56 -175 -42
-189 14 -14 187 -5 203 11 12 12 16 95 8 174 -3 30 -25 28 -35 -3 -8 -23 -18
-24 -36 -2 -11 12 -11 17 -2 20 7 3 23 13 37 24 22 17 26 29 26 70 0 41 -5 54
-26 74 -15 14 -30 25 -35 25 -4 0 -13 2 -21 5 -7 2 -27 -2 -45 -10z m96 -150
c-27 -25 -55 -26 -85 -3 l-29 23 60 5 c62 5 78 -2 54 -25z m-59 -49 c0 -6 12
-20 27 -30 25 -19 26 -19 39 -1 8 10 17 15 21 11 12 -12 8 -135 -5 -148 -12
-12 -167 -16 -179 -5 -9 9 14 123 30 148 14 23 27 25 27 4 0 -15 12 -20 23 -9
3 4 -1 13 -9 21 -8 8 -12 19 -9 23 7 12 35 1 35 -14z"/>
<path d="M6246 1208 c-36 -62 -58 -117 -53 -136 3 -14 5 -14 11 3 4 11 24 53
43 93 39 82 39 107 -1 40z"/>
<path d="M5340 1201 c-12 -8 -10 -18 10 -63 13 -29 32 -64 41 -78 9 -14 47
-90 84 -170 37 -80 71 -149 76 -154 25 -27 124 44 181 130 38 59 61 117 73
187 6 35 4 37 -20 37 -14 0 -39 7 -55 15 -16 8 -33 14 -37 14 -4 -1 -15 1 -23
4 -8 4 -33 11 -55 16 -40 9 -203 53 -240 65 -11 3 -27 2 -35 -3z m90 -33 l25
-10 -25 -13 c-36 -20 -45 -18 -58 10 -19 41 -17 41 58 13z m125 -33 c20 -9 24
-14 12 -14 -18 -1 -76 -30 -112 -56 -19 -14 -22 -13 -38 14 -17 29 -17 29 15
49 39 24 81 26 123 7z m136 -36 c83 -27 94 -37 78 -73 -9 -19 -41 -42 -105
-77 -95 -51 -122 -73 -106 -83 6 -3 15 1 22 9 7 9 29 23 49 32 20 9 53 27 74
40 20 13 37 20 37 15 0 -22 -70 -115 -106 -141 l-41 -31 -35 53 c-50 72 -61
98 -51 108 14 14 115 73 161 93 39 18 56 36 32 36 -12 0 -80 -34 -151 -77 -31
-18 -59 -33 -62 -33 -3 0 -14 16 -26 35 -12 21 -16 35 -9 35 7 0 22 9 34 21
19 18 103 56 130 58 6 1 40 -8 75 -20z"/>
<path d="M6070 1100 c0 -48 3 -60 16 -60 11 0 14 5 10 16 -3 9 -6 36 -6 60 0
24 -4 44 -10 44 -6 0 -10 -27 -10 -60z"/>
<path d="M6122 1138 c-16 -16 -15 -55 2 -61 23 -9 48 16 44 43 -3 28 -27 37
-46 18z m38 -22 c0 -2 -7 -9 -15 -16 -12 -10 -15 -10 -15 4 0 9 7 16 15 16 8
0 15 -2 15 -4z"/>
<path d="M1601 1114 c-40 -51 -36 -85 12 -100 12 -4 38 -20 57 -35 44 -36 191
-79 268 -79 32 0 81 9 111 20 30 11 57 18 59 15 7 -6 84 34 110 58 30 27 28
43 -8 62 -34 18 -68 19 -106 5 -23 -9 -26 -15 -20 -40 7 -39 -19 -57 -103 -68
-52 -7 -77 -5 -144 13 -45 13 -93 27 -107 33 -33 13 -55 38 -40 47 13 8 13 51
0 76 -16 29 -64 25 -89 -7z"/>
<path d="M3383 1093 c-27 -10 -11 -23 28 -23 48 0 118 -19 137 -37 17 -17 41
-6 48 23 11 43 -22 60 -57 28 -15 -13 -24 -15 -46 -6 -35 13 -94 21 -110 15z"/>
<path d="M4266 991 c6 -44 4 -49 -16 -54 -12 -3 -19 -10 -16 -16 4 -6 13 -8
21 -5 10 4 15 -9 20 -50 4 -31 12 -56 18 -56 6 0 7 20 3 55 -6 51 -5 55 14 55
11 0 20 5 20 10 0 6 -9 10 -20 10 -15 0 -20 7 -20 28 0 37 -11 72 -22 72 -5 0
-6 -21 -2 -49z"/>
<path d="M4047 1013 c-7 -6 -4 -41 9 -100 4 -19 0 -23 -20 -23 -33 0 -50 -24
-41 -57 9 -38 23 -53 51 -53 31 0 59 41 46 67 -5 10 -13 47 -17 83 -8 69 -17
95 -28 83z m13 -164 c14 -25 6 -49 -14 -49 -19 0 -40 36 -32 56 8 21 34 17 46
-7z"/>
<path d="M3847 1002 c-5 -7 -7 -31 -5 -55 2 -33 -1 -43 -14 -45 -24 -5 -42
-65 -28 -92 11 -21 60 -29 60 -9 0 8 5 7 15 -1 23 -19 26 -9 10 40 -8 25 -18
74 -22 110 -5 40 -11 60 -16 52z m1 -154 c-4 -41 -28 -50 -28 -10 0 16 3 32 7
35 15 16 24 5 21 -25z"/>
<path d="M6150 985 c-21 -16 -47 -25 -69 -25 -37 0 -152 -16 -183 -26 -10 -3
-18 -10 -18 -15 0 -6 3 -8 8 -5 4 2 60 12 125 21 109 16 119 16 136 1 19 -17
48 -21 69 -7 19 12 11 51 -14 67 -18 12 -24 11 -54 -11z"/>
<path d="M3432 955 c-7 -14 -12 -44 -12 -66 0 -69 73 -119 100 -68 14 25 3 41
-11 16 -33 -59 -91 43 -59 104 15 27 35 24 59 -8 19 -26 20 -26 21 -7 0 51
-78 74 -98 29z"/>
<path d="M2710 956 c0 -30 93 -86 144 -86 13 0 76 43 76 52 0 4 -14 2 -31 -4
-46 -16 -114 -4 -154 26 -25 20 -35 23 -35 12z"/>
<path d="M3900 950 c0 -5 5 -10 10 -10 6 0 10 5 10 10 0 6 -4 10 -10 10 -5 0
-10 -4 -10 -10z"/>
<path d="M3586 904 c-17 -17 -21 -44 -7 -44 5 0 11 7 15 15 9 26 27 16 24 -12
-2 -20 -9 -29 -26 -31 -26 -4 -41 -30 -23 -41 7 -4 28 -3 47 3 35 11 35 11 29
56 -10 67 -29 84 -59 54z"/>
<path d="M4130 910 c0 -5 4 -10 9 -10 5 0 5 -15 -1 -34 -6 -19 -8 -41 -5 -50
7 -17 47 -22 47 -6 0 6 7 10 15 10 8 0 15 3 15 7 0 16 -26 79 -35 85 -15 11
-45 10 -45 -2z m31 -73 c-8 -8 -11 -7 -11 4 0 20 13 34 18 19 3 -7 -1 -17 -7
-23z"/>
<path d="M4347 913 c-13 -12 -7 -80 7 -93 8 -6 25 -10 38 -8 23 4 23 4 -4 18
-34 16 -36 28 -6 32 26 3 37 36 16 49 -16 10 -42 12 -51 2z"/>
<path d="M4440 897 c-10 -26 19 -57 53 -57 20 0 20 -1 -3 -25 -30 -32 -21 -42
14 -14 38 30 32 63 -11 67 -18 2 -33 8 -33 14 0 5 7 8 15 4 9 -3 15 0 15 8 0
8 -9 16 -21 19 -14 4 -23 -1 -29 -16z"/>
<path d="M3687 893 c-12 -3 -16 -10 -12 -21 4 -10 9 -29 12 -45 9 -43 23 -42
23 2 0 42 16 63 31 40 5 -8 9 -29 9 -46 0 -18 5 -33 10 -33 13 0 13 66 0 91
-10 18 -34 22 -73 12z"/>
<path d="M3910 861 c0 -34 19 -53 22 -22 0 12 1 26 2 33 1 6 -5 13 -11 16 -9
2 -13 -7 -13 -27z"/>
</g>
</svg>
